<svg version="1.1" viewBox="50.0 80.0 700.0 500.0" fill="none" stroke="none" stroke-linecap="square" stroke-miterlimit="10" xmlns:xlink="http://www.w3.org/1999/xlink" xmlns="http://www.w3.org/2000/svg"><clipPath id="p.0"><path d="m0 0l620.0 0l0 450.0l-620.0 0l0 -450.0z" clip-rule="nonzero"/></clipPath><g clip-path="url(#p.0)"><path fill="#000000" fill-opacity="0.0" d="m0 0l620.0 0l0 450.0l-620.0 0z" fill-rule="evenodd"/><path fill="#ffffff" d="m64.83727 80.27559l588.69293 0l0 370.48822l-588.69293 0z" fill-rule="evenodd"/><path fill="#ffffff" d="m117.32546 117.32546l438.4252 0l0 290.2362l-438.4252 0z" fill-rule="evenodd"/><path stroke="#000000" stroke-width="1.0" stroke-linejoin="round" stroke-linecap="butt" d="m117.32546 117.32546l438.4252 0l0 290.2362l-438.4252 0z" fill-rule="evenodd"/><path fill="#ffffff" d="m224.35695 212.00787l124.535446 0l0 115.275604l-124.535446 0z" fill-rule="evenodd"/><path stroke="#000000" stroke-width="1.0" stroke-linejoin="round" stroke-linecap="butt" d="m224.35695 212.00787l124.535446 0l0 115.275604l-124.535446 0z" fill-rule="evenodd"/><path fill="#000000" fill-opacity="0.0" d="m224.35695 120.41207l0 88.503944" fill-rule="evenodd"/><path stroke="#000000" stroke-width="1.0" stroke-linejoin="round" stroke-linecap="butt" stroke-dasharray="1.0,3.0" d="m224.35695 126.41207l0 76.503944" fill-rule="evenodd"/><path fill="#000000" stroke="#000000" stroke-width="1.0" stroke-linecap="butt" d="m226.00868 126.41207l-1.6517334 -4.5380936l-1.6517334 4.5380936z" fill-rule="evenodd"/><path fill="#000000" stroke="#000000" stroke-width="1.0" stroke-linecap="butt" d="m222.70522 202.91602l1.6517334 4.538086l1.6517334 -4.538086z" fill-rule="evenodd"/><path fill="#000000" fill-opacity="0.0" d="m118.35433 213.03587l104.97637 0" fill-rule="evenodd"/><path stroke="#000000" stroke-width="1.0" stroke-linejoin="round" stroke-linecap="butt" stroke-dasharray="1.0,3.0" d="m124.35433 213.03589l92.97637 0" fill-rule="evenodd"/><path fill="#000000" stroke="#000000" stroke-width="1.0" stroke-linecap="butt" d="m124.35433 211.38416l-4.538101 1.6517334l4.538101 1.6517334z" fill-rule="evenodd"/><path fill="#000000" stroke="#000000" stroke-width="1.0" stroke-linecap="butt" d="m217.3307 214.68762l4.538101 -1.6517334l-4.538101 -1.6517334z" fill-rule="evenodd"/><path fill="#000000" fill-opacity="0.0" d="m230.5328 321.0971l112.188965 0" fill-rule="evenodd"/><path stroke="#000000" stroke-width="1.0" stroke-linejoin="round" stroke-linecap="butt" stroke-dasharray="1.0,3.0" d="m236.5328 321.0971l100.188965 0" fill-rule="evenodd"/><path fill="#000000" stroke="#000000" stroke-width="1.0" stroke-linecap="butt" d="m236.5328 319.44537l-4.538101 1.6517334l4.538101 1.6517334z" fill-rule="evenodd"/><path fill="#000000" stroke="#000000" stroke-width="1.0" stroke-linecap="butt" d="m336.72177 322.74884l4.5381165 -1.6517334l-4.5381165 -1.6517334z" fill-rule="evenodd"/><path fill="#000000" fill-opacity="0.0" d="m342.71127 216.12335l0 98.80316" fill-rule="evenodd"/><path stroke="#000000" stroke-width="1.0" stroke-linejoin="round" stroke-linecap="butt" stroke-dasharray="1.0,3.0" d="m342.71127 222.12335l0 86.80316" fill-rule="evenodd"/><path fill="#000000" stroke="#000000" stroke-width="1.0" stroke-linecap="butt" d="m344.363 222.12335l-1.6517334 -4.538086l-1.6517334 4.538086z" fill-rule="evenodd"/><path fill="#000000" stroke="#000000" stroke-width="1.0" stroke-linecap="butt" d="m341.05954 308.9265l1.6517334 4.538086l1.6517334 -4.538086z" fill-rule="evenodd"/><path fill="#000000" fill-opacity="0.0" d="m224.59055 148.43307l160.53543 0l0 37.165344l-160.53543 0z" fill-rule="evenodd"/><path fill="#000000" d="m237.90305 166.32558l-2.359375 -5.234375l-1.515625 0l3.234375 6.53125l0.03125 3.890625l1.234375 0l0.015625 -3.890625l3.234375 -6.53125l-1.5 0l-2.375 5.234375zm8.388931 4.328125q0 0.421875 0.265625 0.71875q0.265625 0.28125 0.78125 0.28125q0.5 0 0.765625 -0.28125q0.28125 -0.296875 0.28125 -0.71875q0 -0.421875 -0.265625 -0.71875q-0.265625 -0.296875 -0.78125 -0.296875q-0.53125 0 -0.796875 0.296875q-0.25 0.296875 -0.25 0.71875zm0 -6.265625q0 0.421875 0.265625 0.71875q0.265625 0.28125 0.78125 0.28125q0.5 0 0.765625 -0.28125q0.28125 -0.296875 0.28125 -0.71875q0 -0.421875 -0.265625 -0.71875q-0.265625 -0.296875 -0.78125 -0.296875q-0.53125 0 -0.796875 0.296875q-0.25 0.296875 -0.25 0.71875zm14.918503 7.125l3.328125 0q0.671875 0 1.296875 -0.203125q0.625 -0.203125 1.109375 -0.578125q0.46875 -0.375 0.75 -0.9375q0.296875 -0.5625 0.296875 -1.28125q0 -0.46875 -0.140625 -0.859375q-0.140625 -0.40625 -0.390625 -0.734375q-0.234375 -0.296875 -0.609375 -0.53125q-0.359375 -0.25 -0.75 -0.34375l0 -0.015625q0.375 -0.171875 0.640625 -0.359375q0.265625 -0.1875 0.484375 -0.453125q0.21875 -0.265625 0.34375 -0.59375q0.125 -0.34375 0.140625 -0.75q0 -0.734375 -0.296875 -1.25q-0.28125 -0.53125 -0.75 -0.859375q-0.484375 -0.34375 -1.109375 -0.5q-0.609375 -0.15625 -1.25 -0.171875l-3.09375 0l0 10.421875zm1.328125 -4.875l2.109375 0q0.421875 0.015625 0.78125 0.15625q0.375 0.125 0.640625 0.359375q0.28125 0.234375 0.421875 0.578125q0.15625 0.34375 0.15625 0.796875q0 0.421875 -0.171875 0.765625q-0.171875 0.34375 -0.453125 0.59375q-0.28125 0.234375 -0.65625 0.375q-0.375 0.125 -0.796875 0.125l-2.03125 0l0 -3.75zm0 -1.09375l0 -3.3125l1.8125 0q0.390625 0 0.75 0.09375q0.375 0.09375 0.65625 0.28125q0.28125 0.203125 0.4375 0.515625q0.171875 0.296875 0.171875 0.734375q0 0.40625 -0.171875 0.71875q-0.171875 0.3125 -0.4375 0.515625q-0.28125 0.21875 -0.640625 0.328125q-0.359375 0.109375 -0.734375 0.125l-1.84375 0zm8.107666 9.09375q0.515625 0 0.90625 -0.203125q0.40625 -0.1875 0.71875 -0.46875q0.296875 -0.28125 0.5 -0.625q0.21875 -0.328125 0.34375 -0.640625l3.9375 -8.9375l-1.484375 0l-2.0 5.03125l-0.359375 0.90625l-0.34375 -0.9375l-2.125 -5.0l-1.484375 0l3.34375 7.390625l-0.53125 1.03125q-0.078125 0.140625 -0.203125 0.359375q-0.125 0.21875 -0.296875 0.421875q-0.171875 0.21875 -0.40625 0.359375q-0.21875 0.15625 -0.5 0.15625q-0.09375 0 -0.265625 -0.015625q-0.171875 0 -0.359375 -0.015625l-0.21875 1.078125q0.140625 0.03125 0.390625 0.0625q0.25 0.046875 0.4375 0.046875zm11.295197 -12.75l-1.328125 0l0 1.875l-2.03125 0l0 1.03125l2.03125 0l0 4.203125q0 0.71875 0.1875 1.234375q0.1875 0.5 0.515625 0.8125q0.34375 0.3125 0.78125 0.46875q0.453125 0.140625 0.96875 0.140625q0.296875 0 0.609375 -0.03125q0.3125 -0.03125 0.59375 -0.078125q0.28125 -0.046875 0.515625 -0.125q0.234375 -0.078125 0.40625 -0.171875l-0.1875 -0.9375q-0.125 0.015625 -0.3125 0.0625q-0.1875 0.03125 -0.40625 0.078125q-0.21875 0.03125 -0.453125 0.0625q-0.21875 0.015625 -0.4375 0.015625q-0.296875 0 -0.5625 -0.0625q-0.25 -0.078125 -0.453125 -0.25q-0.203125 -0.171875 -0.328125 -0.46875q-0.109375 -0.296875 -0.109375 -0.75l0 -4.203125l2.953125 0l0 -1.03125l-2.953125 0l0 -1.875zm9.092041 9.765625q1.125 0 1.890625 -0.453125q0.765625 -0.453125 1.15625 -1.046875l-0.8125 -0.625q-0.359375 0.46875 -0.90625 0.765625q-0.546875 0.28125 -1.265625 0.28125q-0.53125 0 -0.984375 -0.203125q-0.4375 -0.203125 -0.75 -0.546875q-0.3125 -0.328125 -0.484375 -0.75q-0.171875 -0.4375 -0.21875 -1.0l0 -0.0625l5.53125 0l0 -0.59375q0 -0.796875 -0.21875 -1.484375q-0.203125 -0.703125 -0.609375 -1.21875q-0.421875 -0.515625 -1.046875 -0.796875q-0.625 -0.296875 -1.453125 -0.296875q-0.671875 0 -1.3125 0.28125q-0.625 0.265625 -1.125 0.78125q-0.5 0.515625 -0.796875 1.25q-0.296875 0.734375 -0.296875 1.671875l0 0.3125q0 0.796875 0.265625 1.484375q0.28125 0.6875 0.765625 1.1875q0.484375 0.5 1.15625 0.78125q0.6875 0.28125 1.515625 0.28125zm-0.171875 -6.9375q0.5 0 0.859375 0.1875q0.375 0.1875 0.625 0.484375q0.234375 0.296875 0.375 0.71875q0.140625 0.40625 0.140625 0.765625l0 0.0625l-4.171875 0q0.078125 -0.53125 0.28125 -0.9375q0.203125 -0.421875 0.484375 -0.703125q0.28125 -0.28125 0.640625 -0.421875q0.359375 -0.15625 0.765625 -0.15625zm18.621613 6.796875l0 -10.421875l-0.09375 0l-3.953125 1.515625l0 1.21875l2.734375 -1.046875l0 8.734375l1.3125 0z" fill-rule="nonzero"/><path fill="#000000" fill-opacity="0.0" d="m120.59055 172.43307l160.53543 0l0 37.165344l-160.53543 0z" fill-rule="evenodd"/><path fill="#000000" d="m134.0593 189.18495l-2.21875 -4.09375l-1.546875 0l3.03125 5.171875l-3.109375 5.25l1.5625 0l2.3125 -4.171875l2.3125 4.171875l1.53125 0l-3.09375 -5.25l3.03125 -5.171875l-1.5625 0l-2.25 4.09375zm8.232681 5.46875q0 0.421875 0.265625 0.71875q0.265625 0.28125 0.78125 0.28125q0.5 0 0.765625 -0.28125q0.28125 -0.296875 0.28125 -0.71875q0 -0.421875 -0.265625 -0.71875q-0.265625 -0.296875 -0.78125 -0.296875q-0.53125 0 -0.796875 0.296875q-0.25 0.296875 -0.25 0.71875zm0 -6.265625q0 0.421875 0.265625 0.71875q0.265625 0.28125 0.78125 0.28125q0.5 0 0.765625 -0.28125q0.28125 -0.296875 0.28125 -0.71875q0 -0.421875 -0.265625 -0.71875q-0.265625 -0.296875 -0.78125 -0.296875q-0.53125 0 -0.796875 0.296875q-0.25 0.296875 -0.25 0.71875zm14.918488 7.125l3.328125 0q0.671875 0 1.296875 -0.203125q0.625 -0.203125 1.109375 -0.578125q0.46875 -0.375 0.75 -0.9375q0.296875 -0.5625 0.296875 -1.28125q0 -0.46875 -0.140625 -0.859375q-0.140625 -0.40625 -0.390625 -0.734375q-0.234375 -0.296875 -0.609375 -0.53125q-0.359375 -0.25 -0.75 -0.34375l0 -0.015625q0.375 -0.171875 0.640625 -0.359375q0.265625 -0.1875 0.484375 -0.453125q0.21875 -0.265625 0.34375 -0.59375q0.125 -0.34375 0.140625 -0.75q0 -0.734375 -0.296875 -1.25q-0.28125 -0.53125 -0.75 -0.859375q-0.484375 -0.34375 -1.109375 -0.5q-0.609375 -0.15625 -1.25 -0.171875l-3.09375 0l0 10.421875zm1.328125 -4.875l2.109375 0q0.421875 0.015625 0.78125 0.15625q0.375 0.125 0.640625 0.359375q0.28125 0.234375 0.421875 0.578125q0.15625 0.34375 0.15625 0.796875q0 0.421875 -0.171875 0.765625q-0.171875 0.34375 -0.453125 0.59375q-0.28125 0.234375 -0.65625 0.375q-0.375 0.125 -0.796875 0.125l-2.03125 0l0 -3.75zm0 -1.09375l0 -3.3125l1.8125 0q0.390625 0 0.75 0.09375q0.375 0.09375 0.65625 0.28125q0.28125 0.203125 0.4375 0.515625q0.171875 0.296875 0.171875 0.734375q0 0.40625 -0.171875 0.71875q-0.171875 0.3125 -0.4375 0.515625q-0.28125 0.21875 -0.640625 0.328125q-0.359375 0.109375 -0.734375 0.125l-1.84375 0zm8.107681 9.09375q0.515625 0 0.90625 -0.203125q0.40625 -0.1875 0.71875 -0.46875q0.296875 -0.28125 0.5 -0.625q0.21875 -0.328125 0.34375 -0.640625l3.9375 -8.9375l-1.484375 0l-2.0 5.03125l-0.359375 0.90625l-0.34375 -0.9375l-2.125 -5.0l-1.484375 0l3.34375 7.390625l-0.53125 1.03125q-0.078125 0.140625 -0.203125 0.359375q-0.125 0.21875 -0.296875 0.421875q-0.171875 0.21875 -0.40625 0.359375q-0.21875 0.15625 -0.5 0.15625q-0.09375 0 -0.265625 -0.015625q-0.171875 0 -0.359375 -0.015625l-0.21875 1.078125q0.140625 0.03125 0.390625 0.0625q0.25 0.046875 0.4375 0.046875zm11.295181 -12.75l-1.328125 0l0 1.875l-2.03125 0l0 1.03125l2.03125 0l0 4.203125q0 0.71875 0.1875 1.234375q0.1875 0.5 0.515625 0.8125q0.34375 0.3125 0.78125 0.46875q0.453125 0.140625 0.96875 0.140625q0.296875 0 0.609375 -0.03125q0.3125 -0.03125 0.59375 -0.078125q0.28125 -0.046875 0.515625 -0.125q0.234375 -0.078125 0.40625 -0.171875l-0.1875 -0.9375q-0.125 0.015625 -0.3125 0.0625q-0.1875 0.03125 -0.40625 0.078125q-0.21875 0.03125 -0.453125 0.0625q-0.21875 0.015625 -0.4375 0.015625q-0.296875 0 -0.5625 -0.0625q-0.25 -0.078125 -0.453125 -0.25q-0.203125 -0.171875 -0.328125 -0.46875q-0.109375 -0.296875 -0.109375 -0.75l0 -4.203125l2.953125 0l0 -1.03125l-2.953125 0l0 -1.875zm9.092056 9.765625q1.125 0 1.890625 -0.453125q0.765625 -0.453125 1.15625 -1.046875l-0.8125 -0.625q-0.359375 0.46875 -0.90625 0.765625q-0.546875 0.28125 -1.265625 0.28125q-0.53125 0 -0.984375 -0.203125q-0.4375 -0.203125 -0.75 -0.546875q-0.3125 -0.328125 -0.484375 -0.75q-0.171875 -0.4375 -0.21875 -1.0l0 -0.0625l5.53125 0l0 -0.59375q0 -0.796875 -0.21875 -1.484375q-0.203125 -0.703125 -0.609375 -1.21875q-0.421875 -0.515625 -1.046875 -0.796875q-0.625 -0.296875 -1.453125 -0.296875q-0.671875 0 -1.3125 0.28125q-0.625 0.265625 -1.125 0.78125q-0.5 0.515625 -0.796875 1.25q-0.296875 0.734375 -0.296875 1.671875l0 0.3125q0 0.796875 0.265625 1.484375q0.28125 0.6875 0.765625 1.1875q0.484375 0.5 1.15625 0.78125q0.6875 0.28125 1.515625 0.28125zm-0.171875 -6.9375q0.5 0 0.859375 0.1875q0.375 0.1875 0.625 0.484375q0.234375 0.296875 0.375 0.71875q0.140625 0.40625 0.140625 0.765625l0 0.0625l-4.171875 0q0.078125 -0.53125 0.28125 -0.9375q0.203125 -0.421875 0.484375 -0.703125q0.28125 -0.28125 0.640625 -0.421875q0.359375 -0.15625 0.765625 -0.15625zm20.871613 2.8125l0 -2.4375q0 -1.0 -0.234375 -1.765625q-0.21875 -0.765625 -0.640625 -1.296875q-0.4375 -0.53125 -1.078125 -0.796875q-0.625 -0.28125 -1.421875 -0.28125q-0.796875 0 -1.421875 0.28125q-0.625 0.265625 -1.046875 0.796875q-0.4375 0.53125 -0.671875 1.296875q-0.234375 0.765625 -0.234375 1.765625l0 2.4375q0 1.0 0.234375 1.765625q0.234375 0.765625 0.671875 1.28125q0.4375 0.546875 1.0625 0.8125q0.625 0.265625 1.421875 0.265625q0.796875 0 1.421875 -0.265625q0.625 -0.28125 1.0625 -0.8125q0.421875 -0.515625 0.640625 -1.28125q0.234375 -0.765625 0.234375 -1.765625zm-5.40625 -0.265625q0 -0.1875 0 -0.359375q0 -0.1875 0 -0.359375l0 -1.75q0 -0.734375 0.140625 -1.28125q0.140625 -0.5625 0.453125 -0.90625q0.25 -0.28125 0.609375 -0.421875q0.359375 -0.15625 0.828125 -0.15625q0.46875 0 0.8125 0.140625q0.359375 0.140625 0.609375 0.40625q0.25 0.265625 0.390625 0.671875q0.15625 0.390625 0.203125 0.90625l-4.046875 3.109375zm4.078125 0.546875q0 0.765625 -0.15625 1.328125q-0.15625 0.5625 -0.484375 0.921875q-0.234375 0.25 -0.59375 0.390625q-0.34375 0.125 -0.796875 0.125q-0.421875 0 -0.765625 -0.125q-0.34375 -0.125 -0.59375 -0.359375q-0.265625 -0.265625 -0.4375 -0.65625q-0.15625 -0.390625 -0.21875 -0.921875l4.046875 -3.09375q0 0.203125 0 0.515625q0 0.296875 0 0.390625l0 1.484375z" fill-rule="nonzero"/><path fill="#000000" fill-opacity="0.0" d="m344.59055 245.46223l160.53543 0l0 37.16536l-160.53543 0z" fill-rule="evenodd"/><path fill="#000000" d="m361.3718 268.54224l0 -10.421875l-1.25 0l0 4.484375l-4.28125 0l0 -4.484375l-1.234375 0l0 10.421875l1.234375 0l0 -4.8125l4.28125 0l0 4.8125l1.25 0zm5.6858215 0.140625q1.125 0 1.890625 -0.453125q0.765625 -0.453125 1.15625 -1.046875l-0.8125 -0.625q-0.359375 0.46875 -0.90625 0.765625q-0.546875 0.28125 -1.265625 0.28125q-0.53125 0 -0.984375 -0.203125q-0.4375 -0.203125 -0.75 -0.546875q-0.3125 -0.328125 -0.484375 -0.75q-0.171875 -0.4375 -0.21875 -1.0l0 -0.0625l5.53125 0l0 -0.59375q0 -0.796875 -0.21875 -1.484375q-0.203125 -0.703125 -0.609375 -1.21875q-0.421875 -0.515625 -1.046875 -0.796875q-0.625 -0.296875 -1.453125 -0.296875q-0.671875 0 -1.3125 0.28125q-0.625 0.265625 -1.125 0.78125q-0.5 0.515625 -0.796875 1.25q-0.296875 0.734375 -0.296875 1.671875l0 0.3125q0 0.796875 0.265625 1.484375q0.28125 0.6875 0.765625 1.1875q0.484375 0.5 1.15625 0.78125q0.6875 0.28125 1.515625 0.28125zm-0.171875 -6.9375q0.5 0 0.859375 0.1875q0.375 0.1875 0.625 0.484375q0.234375 0.296875 0.375 0.71875q0.140625 0.40625 0.140625 0.765625l0 0.0625l-4.171875 0q0.078125 -0.53125 0.28125 -0.9375q0.203125 -0.421875 0.484375 -0.703125q0.28125 -0.28125 0.640625 -0.421875q0.359375 -0.15625 0.765625 -0.15625zm5.748291 -0.953125l0 1.15625l2.640625 0l0 5.453125l-2.640625 0l0 1.140625l6.484375 0l0 -1.140625l-2.53125 0l0 -6.609375l-3.953125 0zm2.46875 -2.03125q0 0.328125 0.1875 0.546875q0.203125 0.203125 0.59375 0.203125q0.40625 0 0.59375 -0.203125q0.203125 -0.21875 0.203125 -0.546875q0 -0.171875 -0.0625 -0.3125q-0.046875 -0.15625 -0.15625 -0.265625q-0.09375 -0.09375 -0.25 -0.140625q-0.140625 -0.0625 -0.328125 -0.0625q-0.1875 0 -0.328125 0.0625q-0.140625 0.046875 -0.234375 0.140625q-0.125 0.109375 -0.171875 0.265625q-0.046875 0.140625 -0.046875 0.3125zm5.8733215 5.84375l0 0.15625q0 0.828125 0.21875 1.546875q0.21875 0.71875 0.609375 1.25q0.390625 0.53125 0.96875 0.828125q0.578125 0.296875 1.28125 0.296875q0.421875 0 0.78125 -0.09375q0.375 -0.078125 0.671875 -0.25q0.1875 -0.109375 0.359375 -0.25q0.171875 -0.140625 0.328125 -0.3125l0 0.671875q0 0.5 -0.15625 0.875q-0.140625 0.390625 -0.40625 0.65625q-0.265625 0.265625 -0.65625 0.390625q-0.375 0.140625 -0.84375 0.140625q-0.265625 0 -0.53125 -0.0625q-0.265625 -0.046875 -0.53125 -0.171875q-0.265625 -0.109375 -0.53125 -0.328125q-0.25 -0.203125 -0.484375 -0.484375l-0.6875 0.78125q0.265625 0.390625 0.625 0.640625q0.375 0.265625 0.78125 0.40625q0.390625 0.15625 0.765625 0.21875q0.390625 0.078125 0.703125 0.078125q0.71875 0 1.3125 -0.21875q0.609375 -0.203125 1.046875 -0.625q0.4375 -0.40625 0.671875 -1.015625q0.234375 -0.59375 0.234375 -1.359375l0 -7.578125l-1.203125 0l-0.0625 0.84375q-0.125 -0.171875 -0.28125 -0.3125q-0.15625 -0.140625 -0.328125 -0.25q-0.3125 -0.203125 -0.703125 -0.3125q-0.390625 -0.109375 -0.859375 -0.109375q-0.71875 0 -1.296875 0.296875q-0.578125 0.296875 -0.96875 0.8125q-0.40625 0.53125 -0.625 1.265625q-0.203125 0.71875 -0.203125 1.578125zm1.328125 0.15625l0 -0.15625q0 -0.5625 0.109375 -1.078125q0.125 -0.515625 0.375 -0.90625q0.25 -0.390625 0.640625 -0.609375q0.40625 -0.234375 0.96875 -0.234375q0.328125 0 0.59375 0.09375q0.28125 0.078125 0.5 0.21875q0.21875 0.140625 0.390625 0.34375q0.171875 0.203125 0.3125 0.453125l0 3.546875q-0.140625 0.25 -0.3125 0.453125q-0.171875 0.203125 -0.375 0.359375q-0.234375 0.15625 -0.515625 0.234375q-0.265625 0.078125 -0.609375 0.078125q-0.546875 0 -0.953125 -0.21875q-0.390625 -0.234375 -0.640625 -0.609375q-0.25 -0.390625 -0.375 -0.890625q-0.109375 -0.515625 -0.109375 -1.078125zm9.029541 -2.8125l0 -4.40625l-1.3125 0l0 11.0l1.3125 0l0 -5.625q0.15625 -0.234375 0.328125 -0.421875q0.1875 -0.1875 0.40625 -0.328125q0.265625 -0.1875 0.578125 -0.28125q0.328125 -0.109375 0.6875 -0.109375q0.4375 0 0.765625 0.125q0.34375 0.125 0.5625 0.375q0.21875 0.21875 0.3125 0.578125q0.109375 0.34375 0.109375 0.796875l0 4.890625l1.328125 0l0 -4.875q0 -0.78125 -0.1875 -1.34375q-0.1875 -0.578125 -0.546875 -0.9375q-0.34375 -0.375 -0.84375 -0.546875q-0.5 -0.1875 -1.109375 -0.1875q-0.453125 0.015625 -0.875 0.140625q-0.40625 0.125 -0.75 0.375q-0.21875 0.15625 -0.40625 0.359375q-0.1875 0.1875 -0.359375 0.421875zm10.607697 -3.03125l-1.328125 0l0 1.875l-2.03125 0l0 1.03125l2.03125 0l0 4.203125q0 0.71875 0.1875 1.234375q0.1875 0.5 0.515625 0.8125q0.34375 0.3125 0.78125 0.46875q0.453125 0.140625 0.96875 0.140625q0.296875 0 0.609375 -0.03125q0.3125 -0.03125 0.59375 -0.078125q0.28125 -0.046875 0.515625 -0.125q0.234375 -0.078125 0.40625 -0.171875l-0.1875 -0.9375q-0.125 0.015625 -0.3125 0.0625q-0.1875 0.03125 -0.40625 0.078125q-0.21875 0.03125 -0.453125 0.0625q-0.21875 0.015625 -0.4375 0.015625q-0.296875 0 -0.5625 -0.0625q-0.25 -0.078125 -0.453125 -0.25q-0.203125 -0.171875 -0.328125 -0.46875q-0.109375 -0.296875 -0.109375 -0.75l0 -4.203125l2.953125 0l0 -1.03125l-2.953125 0l0 -1.875zm8.326416 8.765625q0 0.421875 0.265625 0.71875q0.265625 0.28125 0.78125 0.28125q0.5 0 0.765625 -0.28125q0.28125 -0.296875 0.28125 -0.71875q0 -0.421875 -0.265625 -0.71875q-0.265625 -0.296875 -0.78125 -0.296875q-0.53125 0 -0.796875 0.296875q-0.25 0.296875 -0.25 0.71875zm0 -6.265625q0 0.421875 0.265625 0.71875q0.265625 0.28125 0.78125 0.28125q0.5 0 0.765625 -0.28125q0.28125 -0.296875 0.28125 -0.71875q0 -0.421875 -0.265625 -0.71875q-0.265625 -0.296875 -0.78125 -0.296875q-0.53125 0 -0.796875 0.296875q-0.25 0.296875 -0.25 0.71875zm14.918488 7.125l3.328125 0q0.671875 0 1.296875 -0.203125q0.625 -0.203125 1.109375 -0.578125q0.46875 -0.375 0.75 -0.9375q0.296875 -0.5625 0.296875 -1.28125q0 -0.46875 -0.140625 -0.859375q-0.140625 -0.40625 -0.390625 -0.734375q-0.234375 -0.296875 -0.609375 -0.53125q-0.359375 -0.25 -0.75 -0.34375l0 -0.015625q0.375 -0.171875 0.640625 -0.359375q0.265625 -0.1875 0.484375 -0.453125q0.21875 -0.265625 0.34375 -0.59375q0.125 -0.34375 0.140625 -0.75q0 -0.734375 -0.296875 -1.25q-0.28125 -0.53125 -0.75 -0.859375q-0.484375 -0.34375 -1.109375 -0.5q-0.609375 -0.15625 -1.25 -0.171875l-3.09375 0l0 10.421875zm1.328125 -4.875l2.109375 0q0.421875 0.015625 0.78125 0.15625q0.375 0.125 0.640625 0.359375q0.28125 0.234375 0.421875 0.578125q0.15625 0.34375 0.15625 0.796875q0 0.421875 -0.171875 0.765625q-0.171875 0.34375 -0.453125 0.59375q-0.28125 0.234375 -0.65625 0.375q-0.375 0.125 -0.796875 0.125l-2.03125 0l0 -3.75zm0 -1.09375l0 -3.3125l1.8125 0q0.390625 0 0.75 0.09375q0.375 0.09375 0.65625 0.28125q0.28125 0.203125 0.4375 0.515625q0.171875 0.296875 0.171875 0.734375q0 0.40625 -0.171875 0.71875q-0.171875 0.3125 -0.4375 0.515625q-0.28125 0.21875 -0.640625 0.328125q-0.359375 0.109375 -0.734375 0.125l-1.84375 0zm8.107697 9.09375q0.515625 0 0.90625 -0.203125q0.40625 -0.1875 0.71875 -0.46875q0.296875 -0.28125 0.5 -0.625q0.21875 -0.328125 0.34375 -0.640625l3.9375 -8.9375l-1.484375 0l-2.0 5.03125l-0.359375 0.90625l-0.34375 -0.9375l-2.125 -5.0l-1.484375 0l3.34375 7.390625l-0.53125 1.03125q-0.078125 0.140625 -0.203125 0.359375q-0.125 0.21875 -0.296875 0.421875q-0.171875 0.21875 -0.40625 0.359375q-0.21875 0.15625 -0.5 0.15625q-0.09375 0 -0.265625 -0.015625q-0.171875 0 -0.359375 -0.015625l-0.21875 1.078125q0.140625 0.03125 0.390625 0.0625q0.25 0.046875 0.4375 0.046875zm11.295166 -12.75l-1.328125 0l0 1.875l-2.03125 0l0 1.03125l2.03125 0l0 4.203125q0 0.71875 0.1875 1.234375q0.1875 0.5 0.515625 0.8125q0.34375 0.3125 0.78125 0.46875q0.453125 0.140625 0.96875 0.140625q0.296875 0 0.609375 -0.03125q0.3125 -0.03125 0.59375 -0.078125q0.28125 -0.046875 0.515625 -0.125q0.234375 -0.078125 0.40625 -0.171875l-0.1875 -0.9375q-0.125 0.015625 -0.3125 0.0625q-0.1875 0.03125 -0.40625 0.078125q-0.21875 0.03125 -0.453125 0.0625q-0.21875 0.015625 -0.4375 0.015625q-0.296875 0 -0.5625 -0.0625q-0.25 -0.078125 -0.453125 -0.25q-0.203125 -0.171875 -0.328125 -0.46875q-0.109375 -0.296875 -0.109375 -0.75l0 -4.203125l2.953125 0l0 -1.03125l-2.953125 0l0 -1.875zm9.092072 9.765625q1.125 0 1.890625 -0.453125q0.765625 -0.453125 1.15625 -1.046875l-0.8125 -0.625q-0.359375 0.46875 -0.90625 0.765625q-0.546875 0.28125 -1.265625 0.28125q-0.53125 0 -0.984375 -0.203125q-0.4375 -0.203125 -0.75 -0.546875q-0.3125 -0.328125 -0.484375 -0.75q-0.171875 -0.4375 -0.21875 -1.0l0 -0.0625l5.53125 0l0 -0.59375q0 -0.796875 -0.21875 -1.484375q-0.203125 -0.703125 -0.609375 -1.21875q-0.421875 -0.515625 -1.046875 -0.796875q-0.625 -0.296875 -1.453125 -0.296875q-0.671875 0 -1.3125 0.28125q-0.625 0.265625 -1.125 0.78125q-0.5 0.515625 -0.796875 1.25q-0.296875 0.734375 -0.296875 1.671875l0 0.3125q0 0.796875 0.265625 1.484375q0.28125 0.6875 0.765625 1.1875q0.484375 0.5 1.15625 0.78125q0.6875 0.28125 1.515625 0.28125zm-0.171875 -6.9375q0.5 0 0.859375 0.1875q0.375 0.1875 0.625 0.484375q0.234375 0.296875 0.375 0.71875q0.140625 0.40625 0.140625 0.765625l0 0.0625l-4.171875 0q0.078125 -0.53125 0.28125 -0.9375q0.203125 -0.421875 0.484375 -0.703125q0.28125 -0.28125 0.640625 -0.421875q0.359375 -0.15625 0.765625 -0.15625zm15.887238 0.953125l0 1.078125l0.9375 0q0.5 0 0.90625 0.109375q0.40625 0.109375 0.703125 0.34375q0.28125 0.234375 0.4375 0.59375q0.171875 0.359375 0.171875 0.84375q0 0.484375 -0.140625 0.859375q-0.140625 0.359375 -0.390625 0.59375q-0.265625 0.25 -0.625 0.375q-0.359375 0.109375 -0.8125 0.109375q-0.453125 0 -0.828125 -0.125q-0.359375 -0.125 -0.625 -0.375q-0.25 -0.234375 -0.390625 -0.5625q-0.140625 -0.34375 -0.140625 -0.75l-1.328125 0q0 0.6875 0.25 1.234375q0.265625 0.53125 0.71875 0.90625q0.4375 0.359375 1.046875 0.5625q0.609375 0.1875 1.296875 0.1875q0.703125 0 1.296875 -0.203125q0.609375 -0.203125 1.046875 -0.59375q0.453125 -0.390625 0.703125 -0.953125q0.25 -0.5625 0.25 -1.296875q0 -0.359375 -0.09375 -0.71875q-0.078125 -0.375 -0.28125 -0.703125q-0.203125 -0.328125 -0.546875 -0.59375q-0.328125 -0.265625 -0.84375 -0.421875q0.421875 -0.1875 0.71875 -0.453125q0.3125 -0.265625 0.5 -0.578125q0.203125 -0.296875 0.296875 -0.609375q0.09375 -0.328125 0.09375 -0.625q0 -0.734375 -0.234375 -1.28125q-0.234375 -0.546875 -0.640625 -0.921875q-0.421875 -0.375 -1.0 -0.5625q-0.578125 -0.1875 -1.28125 -0.1875q-0.71875 0 -1.3125 0.234375q-0.59375 0.21875 -1.015625 0.609375q-0.421875 0.390625 -0.65625 0.921875q-0.21875 0.515625 -0.21875 1.109375l1.328125 0q0 -0.40625 0.125 -0.734375q0.140625 -0.328125 0.390625 -0.5625q0.25 -0.234375 0.59375 -0.359375q0.34375 -0.125 0.765625 -0.125q0.4375 0 0.78125 0.109375q0.34375 0.109375 0.5625 0.328125q0.234375 0.234375 0.359375 0.578125q0.125 0.34375 0.125 0.8125q0 0.390625 -0.140625 0.71875q-0.125 0.328125 -0.390625 0.5625q-0.265625 0.234375 -0.65625 0.375q-0.375 0.140625 -0.875 0.140625l-0.9375 0z" fill-rule="nonzero"/><path fill="#000000" fill-opacity="0.0" d="m216.59055 325.46222l160.53543 0l0 37.165375l-160.53543 0z" fill-rule="evenodd"/><path fill="#000000" d="m227.38742 348.54224l1.359375 0l1.265625 -7.40625l0.078125 -0.4375l0.078125 0.4375l1.265625 7.40625l1.34375 0l1.265625 -10.421875l-1.25 0l-0.75 7.171875l-0.046875 0.4375l-0.078125 -0.421875l-1.265625 -7.1875l-1.140625 0l-1.265625 7.171875l-0.078125 0.4375l-0.046875 -0.421875l-0.75 -7.1875l-1.265625 0l1.28125 10.421875zm8.451431 -7.75l0 1.15625l2.640625 0l0 5.453125l-2.640625 0l0 1.140625l6.484375 0l0 -1.140625l-2.53125 0l0 -6.609375l-3.953125 0zm2.46875 -2.03125q0 0.328125 0.1875 0.546875q0.203125 0.203125 0.59375 0.203125q0.40625 0 0.59375 -0.203125q0.203125 -0.21875 0.203125 -0.546875q0 -0.171875 -0.0625 -0.3125q-0.046875 -0.15625 -0.15625 -0.265625q-0.09375 -0.09375 -0.25 -0.140625q-0.140625 -0.0625 -0.328125 -0.0625q-0.1875 0 -0.328125 0.0625q-0.140625 0.046875 -0.234375 0.140625q-0.125 0.109375 -0.171875 0.265625q-0.046875 0.140625 -0.046875 0.3125zm5.8733063 5.84375l0 0.15625q0 0.828125 0.21875 1.546875q0.21875 0.71875 0.625 1.25q0.390625 0.53125 0.953125 0.828125q0.578125 0.296875 1.28125 0.296875q0.71875 0 1.25 -0.234375q0.546875 -0.25 0.921875 -0.71875l0.0625 0.8125l1.21875 0l0 -11.0l-1.328125 0l0 4.015625q-0.375 -0.4375 -0.90625 -0.671875q-0.515625 -0.234375 -1.203125 -0.234375q-0.703125 0 -1.28125 0.296875q-0.578125 0.296875 -0.96875 0.8125q-0.40625 0.53125 -0.625 1.265625q-0.21875 0.71875 -0.21875 1.578125zm1.3125 0.15625l0 -0.15625q0 -0.5625 0.125 -1.078125q0.125 -0.515625 0.375 -0.90625q0.25 -0.390625 0.640625 -0.609375q0.40625 -0.234375 0.96875 -0.234375q0.65625 0 1.09375 0.3125q0.4375 0.296875 0.6875 0.765625l0 3.59375q-0.25 0.515625 -0.6875 0.8125q-0.4375 0.296875 -1.109375 0.296875q-0.546875 0 -0.953125 -0.21875q-0.390625 -0.234375 -0.640625 -0.609375q-0.25 -0.390625 -0.375 -0.890625q-0.125 -0.515625 -0.125 -1.078125zm10.857697 -5.84375l-1.3281403 0l0 1.875l-2.03125 0l0 1.03125l2.03125 0l0 4.203125q0 0.71875 0.1875 1.234375q0.1875 0.5 0.515625 0.8125q0.34376526 0.3125 0.78126526 0.46875q0.453125 0.140625 0.96875 0.140625q0.296875 0 0.609375 -0.03125q0.3125 -0.03125 0.59375 -0.078125q0.28125 -0.046875 0.515625 -0.125q0.234375 -0.078125 0.40625 -0.171875l-0.1875 -0.9375q-0.125 0.015625 -0.3125 0.0625q-0.1875 0.03125 -0.40625 0.078125q-0.21875 0.03125 -0.453125 0.0625q-0.21875 0.015625 -0.4375 0.015625q-0.296875 0 -0.5625 -0.0625q-0.25 -0.078125 -0.453125 -0.25q-0.203125 -0.171875 -0.328125 -0.46875q-0.109375 -0.296875 -0.109375 -0.75l0 -4.203125l2.953125 0l0 -1.03125l-2.953125 0l0 -1.875zm6.982666 3.03125l0 -4.40625l-1.3125 0l0 11.0l1.3125 0l0 -5.625q0.15625 -0.234375 0.328125 -0.421875q0.1875 -0.1875 0.40625 -0.328125q0.265625 -0.1875 0.578125 -0.28125q0.328125 -0.109375 0.6875 -0.109375q0.4375 0 0.765625 0.125q0.34375 0.125 0.5625 0.375q0.21875 0.21875 0.3125 0.578125q0.109375 0.34375 0.109375 0.796875l0 4.890625l1.328125 0l0 -4.875q0 -0.78125 -0.1875 -1.34375q-0.1875 -0.578125 -0.546875 -0.9375q-0.34375 -0.375 -0.84375 -0.546875q-0.5 -0.1875 -1.109375 -0.1875q-0.453125 0.015625 -0.875 0.140625q-0.40625 0.125 -0.75 0.375q-0.21875 0.15625 -0.40625 0.359375q-0.1875 0.1875 -0.359375 0.421875zm10.138947 5.734375q0 0.421875 0.265625 0.71875q0.265625 0.28125 0.78125 0.28125q0.5 0 0.765625 -0.28125q0.28125 -0.296875 0.28125 -0.71875q0 -0.421875 -0.265625 -0.71875q-0.265625 -0.296875 -0.78125 -0.296875q-0.53125 0 -0.796875 0.296875q-0.25 0.296875 -0.25 0.71875zm0 -6.265625q0 0.421875 0.265625 0.71875q0.265625 0.28125 0.78125 0.28125q0.5 0 0.765625 -0.28125q0.28125 -0.296875 0.28125 -0.71875q0 -0.421875 -0.265625 -0.71875q-0.265625 -0.296875 -0.78125 -0.296875q-0.53125 0 -0.796875 0.296875q-0.25 0.296875 -0.25 0.71875zm14.918488 7.125l3.328125 0q0.671875 0 1.296875 -0.203125q0.625 -0.203125 1.109375 -0.578125q0.46875 -0.375 0.75 -0.9375q0.296875 -0.5625 0.296875 -1.28125q0 -0.46875 -0.140625 -0.859375q-0.140625 -0.40625 -0.390625 -0.734375q-0.234375 -0.296875 -0.609375 -0.53125q-0.359375 -0.25 -0.75 -0.34375l0 -0.015625q0.375 -0.171875 0.640625 -0.359375q0.265625 -0.1875 0.484375 -0.453125q0.21875 -0.265625 0.34375 -0.59375q0.125 -0.34375 0.140625 -0.75q0 -0.734375 -0.296875 -1.25q-0.28125 -0.53125 -0.75 -0.859375q-0.484375 -0.34375 -1.109375 -0.5q-0.609375 -0.15625 -1.25 -0.171875l-3.09375 0l0 10.421875zm1.328125 -4.875l2.109375 0q0.421875 0.015625 0.78125 0.15625q0.375 0.125 0.640625 0.359375q0.28125 0.234375 0.421875 0.578125q0.15625 0.34375 0.15625 0.796875q0 0.421875 -0.171875 0.765625q-0.171875 0.34375 -0.453125 0.59375q-0.28125 0.234375 -0.65625 0.375q-0.375 0.125 -0.796875 0.125l-2.03125 0l0 -3.75zm0 -1.09375l0 -3.3125l1.8125 0q0.390625 0 0.75 0.09375q0.375 0.09375 0.65625 0.28125q0.28125 0.203125 0.4375 0.515625q0.171875 0.296875 0.171875 0.734375q0 0.40625 -0.171875 0.71875q-0.171875 0.3125 -0.4375 0.515625q-0.28125 0.21875 -0.640625 0.328125q-0.359375 0.109375 -0.734375 0.125l-1.84375 0zm8.107666 9.09375q0.515625 0 0.90625 -0.203125q0.40625 -0.1875 0.71875 -0.46875q0.296875 -0.28125 0.5 -0.625q0.21875 -0.328125 0.34375 -0.640625l3.9375 -8.9375l-1.484375 0l-2.0 5.03125l-0.359375 0.90625l-0.34375 -0.9375l-2.125 -5.0l-1.484375 0l3.34375 7.390625l-0.53125 1.03125q-0.078125 0.140625 -0.203125 0.359375q-0.125 0.21875 -0.296875 0.421875q-0.171875 0.21875 -0.40625 0.359375q-0.21875 0.15625 -0.5 0.15625q-0.09375 0 -0.265625 -0.015625q-0.171875 0 -0.359375 -0.015625l-0.21875 1.078125q0.140625 0.03125 0.390625 0.0625q0.25 0.046875 0.4375 0.046875zm11.295197 -12.75l-1.328125 0l0 1.875l-2.03125 0l0 1.03125l2.03125 0l0 4.203125q0 0.71875 0.1875 1.234375q0.1875 0.5 0.515625 0.8125q0.34375 0.3125 0.78125 0.46875q0.453125 0.140625 0.96875 0.140625q0.296875 0 0.609375 -0.03125q0.3125 -0.03125 0.59375 -0.078125q0.28125 -0.046875 0.515625 -0.125q0.234375 -0.078125 0.40625 -0.171875l-0.1875 -0.9375q-0.125 0.015625 -0.3125 0.0625q-0.1875 0.03125 -0.40625 0.078125q-0.21875 0.03125 -0.453125 0.0625q-0.21875 0.015625 -0.4375 0.015625q-0.296875 0 -0.5625 -0.0625q-0.25 -0.078125 -0.453125 -0.25q-0.203125 -0.171875 -0.328125 -0.46875q-0.109375 -0.296875 -0.109375 -0.75l0 -4.203125l2.953125 0l0 -1.03125l-2.953125 0l0 -1.875zm9.092041 9.765625q1.125 0 1.890625 -0.453125q0.765625 -0.453125 1.15625 -1.046875l-0.8125 -0.625q-0.359375 0.46875 -0.90625 0.765625q-0.546875 0.28125 -1.265625 0.28125q-0.53125 0 -0.984375 -0.203125q-0.4375 -0.203125 -0.75 -0.546875q-0.3125 -0.328125 -0.484375 -0.75q-0.171875 -0.4375 -0.21875 -1.0l0 -0.0625l5.53125 0l0 -0.59375q0 -0.796875 -0.21875 -1.484375q-0.203125 -0.703125 -0.609375 -1.21875q-0.421875 -0.515625 -1.046875 -0.796875q-0.625 -0.296875 -1.453125 -0.296875q-0.671875 0 -1.3125 0.28125q-0.625 0.265625 -1.125 0.78125q-0.5 0.515625 -0.796875 1.25q-0.296875 0.734375 -0.296875 1.671875l0 0.3125q0 0.796875 0.265625 1.484375q0.28125 0.6875 0.765625 1.1875q0.484375 0.5 1.15625 0.78125q0.6875 0.28125 1.515625 0.28125zm-0.171875 -6.9375q0.5 0 0.859375 0.1875q0.375 0.1875 0.625 0.484375q0.234375 0.296875 0.375 0.71875q0.140625 0.40625 0.140625 0.765625l0 0.0625l-4.171875 0q0.078125 -0.53125 0.28125 -0.9375q0.203125 -0.421875 0.484375 -0.703125q0.28125 -0.28125 0.640625 -0.421875q0.359375 -0.15625 0.765625 -0.15625zm20.730988 6.796875l0 -1.078125l-5.234375 0l2.796875 -3.03125q0.390625 -0.4375 0.75 -0.859375q0.359375 -0.4375 0.625 -0.890625q0.265625 -0.4375 0.421875 -0.890625q0.15625 -0.453125 0.15625 -0.921875q0 -0.625 -0.21875 -1.15625q-0.21875 -0.53125 -0.625 -0.90625q-0.40625 -0.390625 -1.0 -0.609375q-0.59375 -0.21875 -1.328125 -0.21875q-0.796875 0 -1.421875 0.265625q-0.625 0.25 -1.0625 0.6875q-0.4375 0.4375 -0.671875 1.015625q-0.21875 0.578125 -0.21875 1.25l1.328125 0q0 -0.5 0.125 -0.890625q0.125 -0.390625 0.390625 -0.671875q0.25 -0.265625 0.625 -0.40625q0.390625 -0.15625 0.90625 -0.15625q0.4375 0 0.765625 0.140625q0.34375 0.140625 0.59375 0.390625q0.234375 0.25 0.359375 0.59375q0.125 0.34375 0.125 0.734375q0 0.3125 -0.078125 0.609375q-0.078125 0.296875 -0.265625 0.625q-0.1875 0.328125 -0.5 0.734375q-0.296875 0.390625 -0.765625 0.890625l-3.40625 3.796875l0 0.953125l6.828125 0z" fill-rule="nonzero"/><path fill="#000000" fill-opacity="0.0" d="m72.59055 84.43307l160.53543 0l0 37.16536l-160.53543 0z" fill-rule="evenodd"/><path fill="#000000" d="m86.0593 101.184944l-2.21875 -4.09375l-1.546875 0l3.03125 5.171875l-3.109375 5.25l1.5625 0l2.3125 -4.171875l2.3125 4.171875l1.53125 0l-3.09375 -5.25l3.03125 -5.171875l-1.5625 0l-2.25 4.09375zm11.951431 0.75l0 -1.15625l-6.390625 0l0 1.15625l6.390625 0zm0 2.96875l0 -1.140625l-6.390625 0l0 1.140625l6.390625 0zm8.951431 -1.375l0 -2.4375q0 -1.0 -0.234375 -1.765625q-0.21875 -0.765625 -0.640625 -1.296875q-0.4375 -0.53125 -1.078125 -0.796875q-0.625 -0.28125 -1.421875 -0.28125q-0.796875 0 -1.421875 0.28125q-0.625 0.265625 -1.046875 0.796875q-0.4375 0.53125 -0.671875 1.296875q-0.234375 0.765625 -0.234375 1.765625l0 2.4375q0 1.0 0.234375 1.765625q0.234375 0.765625 0.671875 1.28125q0.4375 0.546875 1.0625 0.8125q0.625 0.265625 1.421875 0.265625q0.796875 0 1.421875 -0.265625q0.625 -0.28125 1.0625 -0.8125q0.421875 -0.515625 0.640625 -1.28125q0.234375 -0.765625 0.234375 -1.765625zm-5.40625 -0.265625q0 -0.1875 0 -0.359375q0 -0.1875 0 -0.359375l0 -1.75q0 -0.734375 0.140625 -1.28125q0.140625 -0.5625 0.453125 -0.90625q0.25 -0.28125 0.609375 -0.421875q0.359375 -0.15625 0.828125 -0.15625q0.46875 0 0.8125 0.140625q0.359375 0.140625 0.609375 0.40625q0.25 0.265625 0.390625 0.671875q0.15625 0.390625 0.203125 0.90625l-4.046875 3.109375zm4.078125 0.546875q0 0.765625 -0.15625 1.328125q-0.15625 0.5625 -0.484375 0.921875q-0.234375 0.25 -0.59375 0.390625q-0.34375 0.125 -0.796875 0.125q-0.421875 0 -0.765625 -0.125q-0.34375 -0.125 -0.59375 -0.359375q-0.265625 -0.265625 -0.4375 -0.65625q-0.15625 -0.390625 -0.21875 -0.921875l4.046875 -3.09375q0 0.203125 0 0.515625q0 0.296875 0 0.390625l0 1.484375zm6.9358063 3.390625l0 -1.25l-1.4375 0l0 1.28125q0 0.609375 -0.140625 1.171875q-0.140625 0.5625 -0.484375 1.0625l0.828125 0.453125q0.5625 -0.515625 0.890625 -1.265625q0.34375 -0.734375 0.34375 -1.453125zm17.309105 -4.875l-2.3593674 -5.234375l-1.515625 0l3.2343674 6.53125l0.03125 3.890625l1.234375 0l0.015625 -3.890625l3.234375 -6.53125l-1.5 0l-2.375 5.234375zm12.107681 -0.390625l0 -1.15625l-6.390625 0l0 1.15625l6.390625 0zm0 2.96875l0 -1.140625l-6.390625 0l0 1.140625l6.390625 0zm8.951431 -1.375l0 -2.4375q0 -1.0 -0.234375 -1.765625q-0.21875 -0.765625 -0.640625 -1.296875q-0.4375 -0.53125 -1.078125 -0.796875q-0.625 -0.28125 -1.421875 -0.28125q-0.796875 0 -1.421875 0.28125q-0.625 0.265625 -1.046875 0.796875q-0.4375 0.53125 -0.671875 1.296875q-0.234375 0.765625 -0.234375 1.765625l0 2.4375q0 1.0 0.234375 1.765625q0.234375 0.765625 0.671875 1.28125q0.4375 0.546875 1.0625 0.8125q0.625 0.265625 1.421875 0.265625q0.796875 0 1.421875 -0.265625q0.625 -0.28125 1.0625 -0.8125q0.421875 -0.515625 0.640625 -1.28125q0.234375 -0.765625 0.234375 -1.765625zm-5.40625 -0.265625q0 -0.1875 0 -0.359375q0 -0.1875 0 -0.359375l0 -1.75q0 -0.734375 0.140625 -1.28125q0.140625 -0.5625 0.453125 -0.90625q0.25 -0.28125 0.609375 -0.421875q0.359375 -0.15625 0.828125 -0.15625q0.46875 0 0.8125 0.140625q0.359375 0.140625 0.609375 0.40625q0.25 0.265625 0.390625 0.671875q0.15625 0.390625 0.203125 0.90625l-4.046875 3.109375zm4.078125 0.546875q0 0.765625 -0.15625 1.328125q-0.15625 0.5625 -0.484375 0.921875q-0.234375 0.25 -0.59375 0.390625q-0.34375 0.125 -0.796875 0.125q-0.421875 0 -0.765625 -0.125q-0.34375 -0.125 -0.59375 -0.359375q-0.265625 -0.265625 -0.4375 -0.65625q-0.15625 -0.390625 -0.21875 -0.921875l4.046875 -3.09375q0 0.203125 0 0.515625q0 0.296875 0 0.390625l0 1.484375z" fill-rule="nonzero"/><path fill="#000000" fill-opacity="0.0" d="m498.52756 84.43307l160.53543 0l0 37.16536l-160.53543 0z" fill-rule="evenodd"/><path fill="#000000" d="m511.9963 101.184944l-2.21875 -4.09375l-1.546875 0l3.03125 5.171875l-3.109375 5.25l1.5625 0l2.3125305 -4.171875l2.3125 4.171875l1.53125 0l-3.09375 -5.25l3.03125 -5.171875l-1.5625 0l-2.2500305 4.09375zm11.951447 0.75l0 -1.15625l-6.390625 0l0 1.15625l6.390625 0zm0 2.96875l0 -1.140625l-6.390625 0l0 1.140625l6.390625 0zm8.810791 2.609375l0 -1.078125l-5.234375 0l2.796875 -3.03125q0.390625 -0.4375 0.75 -0.859375q0.359375 -0.4375 0.625 -0.890625q0.265625 -0.4375 0.421875 -0.890625q0.15625 -0.453125 0.15625 -0.921875q0 -0.625 -0.21875 -1.15625q-0.21875 -0.53125 -0.625 -0.90625q-0.40625 -0.390625 -1.0 -0.609375q-0.59375 -0.21875 -1.328125 -0.21875q-0.796875 0 -1.421875 0.265625q-0.625 0.25 -1.0625 0.6875q-0.4375 0.4375 -0.671875 1.015625q-0.21875 0.578125 -0.21875 1.25l1.328125 0q0 -0.5 0.125 -0.890625q0.125 -0.390625 0.390625 -0.671875q0.25 -0.265625 0.625 -0.40625q0.390625 -0.15625 0.90625 -0.15625q0.4375 0 0.765625 0.140625q0.34375 0.140625 0.59375 0.390625q0.234375 0.25 0.359375 0.59375q0.125 0.34375 0.125 0.734375q0 0.3125 -0.078125 0.609375q-0.078125 0.296875 -0.265625 0.625q-0.1875 0.328125 -0.5 0.734375q-0.296875 0.390625 -0.765625 0.890625l-3.40625 3.796875l0 0.953125l6.828125 0zm2.873291 -5.21875l1.0625 0.265625q0.171875 -0.15625 0.34375 -0.28125q0.171875 -0.125 0.359375 -0.203125q0.1875 -0.09375 0.421875 -0.140625q0.25 -0.046875 0.578125 -0.046875q0.5 0 0.890625 0.1875q0.390625 0.171875 0.65625 0.484375q0.265625 0.3125 0.390625 0.734375q0.140625 0.421875 0.140625 0.90625q0 0.546875 -0.125 0.984375q-0.125 0.4375 -0.359375 0.734375q-0.25 0.3125 -0.625 0.484375q-0.359375 0.171875 -0.828125 0.171875q-0.84375 0 -1.375 -0.453125q-0.53125 -0.46875 -0.65625 -1.34375l-1.25 0q0.0625 0.71875 0.34375 1.265625q0.28125 0.53125 0.734375 0.890625q0.4375 0.359375 1.0 0.546875q0.5625 0.171875 1.203125 0.171875q0.828125 0 1.4375 -0.25q0.625 -0.265625 1.03125 -0.734375q0.40625 -0.453125 0.59375 -1.09375q0.203125 -0.640625 0.203125 -1.390625q0 -0.78125 -0.21875 -1.421875q-0.203125 -0.640625 -0.609375 -1.109375q-0.40625 -0.453125 -0.984375 -0.703125q-0.5625 -0.25 -1.28125 -0.25q-0.5625 0 -1.0 0.140625q-0.421875 0.140625 -0.734375 0.3125l0.296875 -2.765625l4.21875 0l0 -1.296875l-5.34375 0l-0.515625 5.203125zm8.795227 0l1.0625 0.265625q0.171875 -0.15625 0.34375 -0.28125q0.171875 -0.125 0.359375 -0.203125q0.1875 -0.09375 0.421875 -0.140625q0.25 -0.046875 0.578125 -0.046875q0.5 0 0.890625 0.1875q0.390625 0.171875 0.65625 0.484375q0.265625 0.3125 0.390625 0.734375q0.140625 0.421875 0.140625 0.90625q0 0.546875 -0.125 0.984375q-0.125 0.4375 -0.359375 0.734375q-0.25 0.3125 -0.625 0.484375q-0.359375 0.171875 -0.828125 0.171875q-0.84375 0 -1.375 -0.453125q-0.53125 -0.46875 -0.65625 -1.34375l-1.25 0q0.0625 0.71875 0.34375 1.265625q0.28125 0.53125 0.734375 0.890625q0.4375 0.359375 1.0 0.546875q0.5625 0.171875 1.203125 0.171875q0.828125 0 1.4375 -0.25q0.625 -0.265625 1.03125 -0.734375q0.40625 -0.453125 0.59375 -1.09375q0.203125 -0.640625 0.203125 -1.390625q0 -0.78125 -0.21875 -1.421875q-0.203125 -0.640625 -0.609375 -1.109375q-0.40625 -0.453125 -0.984375 -0.703125q-0.5625 -0.25 -1.28125 -0.25q-0.5625 0 -1.0 0.140625q-0.421875 0.140625 -0.734375 0.3125l0.296875 -2.765625l4.21875 0l0 -1.296875l-5.34375 0l-0.515625 5.203125zm11.670166 4.90625l0 -1.25l-1.4375 0l0 1.28125q0 0.609375 -0.140625 1.171875q-0.140625 0.5625 -0.484375 1.0625l0.828125 0.453125q0.5625 -0.515625 0.890625 -1.265625q0.34375 -0.734375 0.34375 -1.453125zm17.309082 -4.875l-2.359375 -5.234375l-1.515625 0l3.234375 6.53125l0.03125 3.890625l1.234375 0l0.015625 -3.890625l3.234375 -6.53125l-1.5 0l-2.375 5.234375zm12.107727 -0.390625l0 -1.15625l-6.390625 0l0 1.15625l6.390625 0zm0 2.96875l0 -1.140625l-6.390625 0l0 1.140625l6.390625 0zm8.951416 -1.375l0 -2.4375q0 -1.0 -0.234375 -1.765625q-0.21875 -0.765625 -0.640625 -1.296875q-0.4375 -0.53125 -1.078125 -0.796875q-0.625 -0.28125 -1.421875 -0.28125q-0.796875 0 -1.421875 0.28125q-0.625 0.265625 -1.046875 0.796875q-0.4375 0.53125 -0.671875 1.296875q-0.234375 0.765625 -0.234375 1.765625l0 2.4375q0 1.0 0.234375 1.765625q0.234375 0.765625 0.671875 1.28125q0.4375 0.546875 1.0625 0.8125q0.625 0.265625 1.421875 0.265625q0.796875 0 1.421875 -0.265625q0.625 -0.28125 1.0625 -0.8125q0.421875 -0.515625 0.640625 -1.28125q0.234375 -0.765625 0.234375 -1.765625zm-5.40625 -0.265625q0 -0.1875 0 -0.359375q0 -0.1875 0 -0.359375l0 -1.75q0 -0.734375 0.140625 -1.28125q0.140625 -0.5625 0.453125 -0.90625q0.25 -0.28125 0.609375 -0.421875q0.359375 -0.15625 0.828125 -0.15625q0.46875 0 0.8125 0.140625q0.359375 0.140625 0.609375 0.40625q0.25 0.265625 0.390625 0.671875q0.15625 0.390625 0.203125 0.90625l-4.046875 3.109375zm4.078125 0.546875q0 0.765625 -0.15625 1.328125q-0.15625 0.5625 -0.484375 0.921875q-0.234375 0.25 -0.59375 0.390625q-0.34375 0.125 -0.796875 0.125q-0.421875 0 -0.765625 -0.125q-0.34375 -0.125 -0.59375 -0.359375q-0.265625 -0.265625 -0.4375 -0.65625q-0.15625 -0.390625 -0.21875 -0.921875l4.046875 -3.09375q0 0.203125 0 0.515625q0 0.296875 0 0.390625l0 1.484375z" fill-rule="nonzero"/><path fill="#000000" fill-opacity="0.0" d="m514.5276 408.45364l160.5354 0l0 37.165375l-160.5354 0z" fill-rule="evenodd"/><path fill="#000000" d="m527.99634 425.20554l-2.21875 -4.09375l-1.546875 0l3.03125 5.171875l-3.109375 5.25l1.5625 0l2.3125 -4.171875l2.3125 4.171875l1.53125 0l-3.09375 -5.25l3.03125 -5.171875l-1.5625 0l-2.25 4.09375zm11.951416 0.75l0 -1.15625l-6.390625 0l0 1.15625l6.390625 0zm0 2.96875l0 -1.140625l-6.390625 0l0 1.140625l6.390625 0zm8.810791 2.609375l0 -1.078125l-5.234375 0l2.796875 -3.03125q0.390625 -0.4375 0.75 -0.859375q0.359375 -0.4375 0.625 -0.890625q0.265625 -0.4375 0.421875 -0.890625q0.15625 -0.453125 0.15625 -0.921875q0 -0.625 -0.21875 -1.15625q-0.21875 -0.53125 -0.625 -0.90625q-0.40625 -0.390625 -1.0 -0.609375q-0.59375 -0.21875 -1.328125 -0.21875q-0.796875 0 -1.421875 0.265625q-0.625 0.25 -1.0625 0.6875q-0.4375 0.4375 -0.671875 1.015625q-0.21875 0.578125 -0.21875 1.25l1.328125 0q0 -0.5 0.125 -0.890625q0.125 -0.390625 0.390625 -0.671875q0.25 -0.265625 0.625 -0.40625q0.390625 -0.15625 0.90625 -0.15625q0.4375 0 0.765625 0.140625q0.34375 0.140625 0.59375 0.390625q0.234375 0.25 0.359375 0.59375q0.125 0.34375 0.125 0.734375q0 0.3125 -0.078125 0.609375q-0.078125 0.296875 -0.265625 0.625q-0.1875 0.328125 -0.5 0.734375q-0.296875 0.390625 -0.765625 0.890625l-3.40625 3.796875l0 0.953125l6.828125 0zm2.873291 -5.21875l1.0625 0.265625q0.171875 -0.15625 0.34375 -0.28125q0.171875 -0.125 0.359375 -0.203125q0.1875 -0.09375 0.421875 -0.140625q0.25 -0.046875 0.578125 -0.046875q0.5 0 0.890625 0.1875q0.390625 0.171875 0.65625 0.484375q0.265625 0.3125 0.390625 0.734375q0.140625 0.421875 0.140625 0.90625q0 0.546875 -0.125 0.984375q-0.125 0.4375 -0.359375 0.734375q-0.25 0.3125 -0.625 0.484375q-0.359375 0.171875 -0.828125 0.171875q-0.84375 0 -1.375 -0.453125q-0.53125 -0.46875 -0.65625 -1.34375l-1.25 0q0.0625 0.71875 0.34375 1.265625q0.28125 0.53125 0.734375 0.890625q0.4375 0.359375 1.0 0.546875q0.5625 0.171875 1.203125 0.171875q0.828125 0 1.4375 -0.25q0.625 -0.265625 1.03125 -0.734375q0.40625 -0.453125 0.59375 -1.09375q0.203125 -0.640625 0.203125 -1.390625q0 -0.78125 -0.21875 -1.421875q-0.203125 -0.640625 -0.609375 -1.109375q-0.40625 -0.453125 -0.984375 -0.703125q-0.5625 -0.25 -1.28125 -0.25q-0.5625 0 -1.0 0.140625q-0.421875 0.140625 -0.734375 0.3125l0.296875 -2.765625l4.21875 0l0 -1.296875l-5.34375 0l-0.515625 5.203125zm8.795227 0l1.0625 0.265625q0.171875 -0.15625 0.34375 -0.28125q0.171875 -0.125 0.359375 -0.203125q0.1875 -0.09375 0.421875 -0.140625q0.25 -0.046875 0.578125 -0.046875q0.5 0 0.890625 0.1875q0.390625 0.171875 0.65625 0.484375q0.265625 0.3125 0.390625 0.734375q0.140625 0.421875 0.140625 0.90625q0 0.546875 -0.125 0.984375q-0.125 0.4375 -0.359375 0.734375q-0.25 0.3125 -0.625 0.484375q-0.359375 0.171875 -0.828125 0.171875q-0.84375 0 -1.375 -0.453125q-0.53125 -0.46875 -0.65625 -1.34375l-1.25 0q0.0625 0.71875 0.34375 1.265625q0.28125 0.53125 0.734375 0.890625q0.4375 0.359375 1.0 0.546875q0.5625 0.171875 1.203125 0.171875q0.828125 0 1.4375 -0.25q0.625 -0.265625 1.03125 -0.734375q0.40625 -0.453125 0.59375 -1.09375q0.203125 -0.640625 0.203125 -1.390625q0 -0.78125 -0.21875 -1.421875q-0.203125 -0.640625 -0.609375 -1.109375q-0.40625 -0.453125 -0.984375 -0.703125q-0.5625 -0.25 -1.28125 -0.25q-0.5625 0 -1.0 0.140625q-0.421875 0.140625 -0.734375 0.3125l0.296875 -2.765625l4.21875 0l0 -1.296875l-5.34375 0l-0.515625 5.203125zm11.670166 4.90625l0 -1.25l-1.4375 0l0 1.28125q0 0.609375 -0.140625 1.171875q-0.140625 0.5625 -0.484375 1.0625l0.828125 0.453125q0.5625 -0.515625 0.890625 -1.265625q0.34375 -0.734375 0.34375 -1.453125zm17.309082 -4.875l-2.359375 -5.234375l-1.515625 0l3.234375 6.53125l0.03125 3.890625l1.234375 0l0.015625 -3.890625l3.234375 -6.53125l-1.5 0l-2.375 5.234375zm12.107727 -0.390625l0 -1.15625l-6.390625 0l0 1.15625l6.390625 0zm0 2.96875l0 -1.140625l-6.390625 0l0 1.140625l6.390625 0zm8.810791 2.609375l0 -1.078125l-5.234375 0l2.796875 -3.03125q0.390625 -0.4375 0.75 -0.859375q0.359375 -0.4375 0.625 -0.890625q0.265625 -0.4375 0.421875 -0.890625q0.15625 -0.453125 0.15625 -0.921875q0 -0.625 -0.21875 -1.15625q-0.21875 -0.53125 -0.625 -0.90625q-0.40625 -0.390625 -1.0 -0.609375q-0.59375 -0.21875 -1.328125 -0.21875q-0.796875 0 -1.421875 0.265625q-0.625 0.25 -1.0625 0.6875q-0.4375 0.4375 -0.671875 1.015625q-0.21875 0.578125 -0.21875 1.25l1.328125 0q0 -0.5 0.125 -0.890625q0.125 -0.390625 0.390625 -0.671875q0.25 -0.265625 0.625 -0.40625q0.390625 -0.15625 0.90625 -0.15625q0.4375 0 0.765625 0.140625q0.34375 0.140625 0.59375 0.390625q0.234375 0.25 0.359375 0.59375q0.125 0.34375 0.125 0.734375q0 0.3125 -0.078125 0.609375q-0.078125 0.296875 -0.265625 0.625q-0.1875 0.328125 -0.5 0.734375q-0.296875 0.390625 -0.765625 0.890625l-3.40625 3.796875l0 0.953125l6.828125 0zm2.873291 -5.21875l1.0625 0.265625q0.171875 -0.15625 0.34375 -0.28125q0.171875 -0.125 0.359375 -0.203125q0.1875 -0.09375 0.421875 -0.140625q0.25 -0.046875 0.578125 -0.046875q0.5 0 0.890625 0.1875q0.390625 0.171875 0.65625 0.484375q0.265625 0.3125 0.390625 0.734375q0.140625 0.421875 0.140625 0.90625q0 0.546875 -0.125 0.984375q-0.125 0.4375 -0.359375 0.734375q-0.25 0.3125 -0.625 0.484375q-0.359375 0.171875 -0.828125 0.171875q-0.84375 0 -1.375 -0.453125q-0.53125 -0.46875 -0.65625 -1.34375l-1.25 0q0.0625 0.71875 0.34375 1.265625q0.28125 0.53125 0.734375 0.890625q0.4375 0.359375 1.0 0.546875q0.5625 0.171875 1.203125 0.171875q0.828125 0 1.4375 -0.25q0.625 -0.265625 1.03125 -0.734375q0.40625 -0.453125 0.59375 -1.09375q0.203125 -0.640625 0.203125 -1.390625q0 -0.78125 -0.21875 -1.421875q-0.203125 -0.640625 -0.609375 -1.109375q-0.40625 -0.453125 -0.984375 -0.703125q-0.5625 -0.25 -1.28125 -0.25q-0.5625 0 -1.0 0.140625q-0.421875 0.140625 -0.734375 0.3125l0.296875 -2.765625l4.21875 0l0 -1.296875l-5.34375 0l-0.515625 5.203125zm8.795166 0l1.0625 0.265625q0.171875 -0.15625 0.34375 -0.28125q0.171875 -0.125 0.359375 -0.203125q0.1875 -0.09375 0.421875 -0.140625q0.25 -0.046875 0.578125 -0.046875q0.5 0 0.890625 0.1875q0.390625 0.171875 0.65625 0.484375q0.265625 0.3125 0.390625 0.734375q0.140625 0.421875 0.140625 0.90625q0 0.546875 -0.125 0.984375q-0.125 0.4375 -0.359375 0.734375q-0.25 0.3125 -0.625 0.484375q-0.359375 0.171875 -0.828125 0.171875q-0.84375 0 -1.375 -0.453125q-0.53125 -0.46875 -0.65625 -1.34375l-1.25 0q0.0625 0.71875 0.34375 1.265625q0.28125 0.53125 0.734375 0.890625q0.4375 0.359375 1.0 0.546875q0.5625 0.171875 1.203125 0.171875q0.828125 0 1.4375 -0.25q0.625 -0.265625 1.03125 -0.734375q0.40625 -0.453125 0.59375 -1.09375q0.203125 -0.640625 0.203125 -1.390625q0 -0.78125 -0.21875 -1.421875q-0.203125 -0.640625 -0.609375 -1.109375q-0.40625 -0.453125 -0.984375 -0.703125q-0.5625 -0.25 -1.28125 -0.25q-0.5625 0 -1.0 0.140625q-0.421875 0.140625 -0.734375 0.3125l0.296875 -2.765625l4.21875 0l0 -1.296875l-5.34375 0l-0.515625 5.203125z" fill-rule="nonzero"/><path fill="#000000" fill-opacity="0.0" d="m66.52756 404.43307l160.53543 0l0 37.165344l-160.53543 0z" fill-rule="evenodd"/><path fill="#000000" d="m79.99631 421.18494l-2.21875 -4.09375l-1.546875 0l3.03125 5.171875l-3.109375 5.25l1.5625 0l2.3125 -4.171875l2.3125 4.171875l1.53125 0l-3.09375 -5.25l3.03125 -5.171875l-1.5625 0l-2.25 4.09375zm11.951431 0.75l0 -1.15625l-6.390625 0l0 1.15625l6.390625 0zm0 2.96875l0 -1.140625l-6.390625 0l0 1.140625l6.390625 0zm8.951431 -1.375l0 -2.4375q0 -1.0 -0.234375 -1.765625q-0.21875 -0.765625 -0.640625 -1.296875q-0.4375 -0.53125 -1.078125 -0.796875q-0.625 -0.28125 -1.421875 -0.28125q-0.796875 0 -1.421875 0.28125q-0.625 0.265625 -1.046875 0.796875q-0.4375 0.53125 -0.671875 1.296875q-0.234375 0.765625 -0.234375 1.765625l0 2.4375q0 1.0 0.234375 1.765625q0.234375 0.765625 0.671875 1.28125q0.4375 0.546875 1.0625 0.8125q0.625 0.265625 1.421875 0.265625q0.796875 0 1.421875 -0.265625q0.625 -0.28125 1.0625 -0.8125q0.421875 -0.515625 0.640625 -1.28125q0.234375 -0.765625 0.234375 -1.765625zm-5.40625 -0.265625q0 -0.1875 0 -0.359375q0 -0.1875 0 -0.359375l0 -1.75q0 -0.734375 0.140625 -1.28125q0.140625 -0.5625 0.453125 -0.90625q0.25 -0.28125 0.609375 -0.421875q0.359375 -0.15625 0.828125 -0.15625q0.46875 0 0.8125 0.140625q0.359375 0.140625 0.609375 0.40625q0.25 0.265625 0.390625 0.671875q0.15625 0.390625 0.203125 0.90625l-4.046875 3.109375zm4.078125 0.546875q0 0.765625 -0.15625 1.328125q-0.15625 0.5625 -0.484375 0.921875q-0.234375 0.25 -0.59375 0.390625q-0.34375 0.125 -0.796875 0.125q-0.421875 0 -0.765625 -0.125q-0.34375 -0.125 -0.59375 -0.359375q-0.265625 -0.265625 -0.4375 -0.65625q-0.15625 -0.390625 -0.21875 -0.921875l4.046875 -3.09375q0 0.203125 0 0.515625q0 0.296875 0 0.390625l0 1.484375zm6.9358063 3.390625l0 -1.25l-1.4375 0l0 1.28125q0 0.609375 -0.140625 1.171875q-0.140625 0.5625 -0.484375 1.0625l0.828125 0.453125q0.5625 -0.515625 0.890625 -1.265625q0.34375 -0.734375 0.34375 -1.453125zm17.309113 -4.875l-2.359375 -5.234375l-1.515625 0l3.234375 6.53125l0.03125 3.890625l1.234375 0l0.015625 -3.890625l3.234375 -6.53125l-1.5 0l-2.375 5.234375zm12.107681 -0.390625l0 -1.15625l-6.390625 0l0 1.15625l6.390625 0zm0 2.96875l0 -1.140625l-6.390625 0l0 1.140625l6.390625 0zm8.810806 2.609375l0 -1.078125l-5.234375 0l2.796875 -3.03125q0.390625 -0.4375 0.75 -0.859375q0.359375 -0.4375 0.625 -0.890625q0.265625 -0.4375 0.421875 -0.890625q0.15625 -0.453125 0.15625 -0.921875q0 -0.625 -0.21875 -1.15625q-0.21875 -0.53125 -0.625 -0.90625q-0.40625 -0.390625 -1.0 -0.609375q-0.59375 -0.21875 -1.328125 -0.21875q-0.796875 0 -1.421875 0.265625q-0.625 0.25 -1.0625 0.6875q-0.4375 0.4375 -0.671875 1.015625q-0.21875 0.578125 -0.21875 1.25l1.328125 0q0 -0.5 0.125 -0.890625q0.125 -0.390625 0.390625 -0.671875q0.25 -0.265625 0.625 -0.40625q0.390625 -0.15625 0.90625 -0.15625q0.4375 0 0.765625 0.140625q0.34375 0.140625 0.59375 0.390625q0.234375 0.25 0.359375 0.59375q0.125 0.34375 0.125 0.734375q0 0.3125 -0.078125 0.609375q-0.078125 0.296875 -0.265625 0.625q-0.1875 0.328125 -0.5 0.734375q-0.296875 0.390625 -0.765625 0.890625l-3.40625 3.796875l0 0.953125l6.828125 0zm2.8733063 -5.21875l1.0625 0.265625q0.171875 -0.15625 0.34375 -0.28125q0.171875 -0.125 0.359375 -0.203125q0.1875 -0.09375 0.421875 -0.140625q0.25 -0.046875 0.578125 -0.046875q0.5 0 0.890625 0.1875q0.390625 0.171875 0.65625 0.484375q0.265625 0.3125 0.390625 0.734375q0.140625 0.421875 0.140625 0.90625q0 0.546875 -0.125 0.984375q-0.125 0.4375 -0.359375 0.734375q-0.25 0.3125 -0.625 0.484375q-0.359375 0.171875 -0.828125 0.171875q-0.84375 0 -1.375 -0.453125q-0.53125 -0.46875 -0.65625 -1.34375l-1.25 0q0.0625 0.71875 0.34375 1.265625q0.28125 0.53125 0.734375 0.890625q0.4375 0.359375 1.0 0.546875q0.5625 0.171875 1.203125 0.171875q0.828125 0 1.4375 -0.25q0.625 -0.265625 1.03125 -0.734375q0.40625 -0.453125 0.59375 -1.09375q0.203125 -0.640625 0.203125 -1.390625q0 -0.78125 -0.21875 -1.421875q-0.203125 -0.640625 -0.609375 -1.109375q-0.40625 -0.453125 -0.984375 -0.703125q-0.5625 -0.25 -1.28125 -0.25q-0.5625 0 -1.0 0.140625q-0.421875 0.140625 -0.734375 0.3125l0.296875 -2.765625l4.21875 0l0 -1.296875l-5.34375 0l-0.515625 5.203125zm8.795181 0l1.0625 0.265625q0.171875 -0.15625 0.34375 -0.28125q0.171875 -0.125 0.359375 -0.203125q0.1875 -0.09375 0.421875 -0.140625q0.25 -0.046875 0.578125 -0.046875q0.5 0 0.890625 0.1875q0.390625 0.171875 0.65625 0.484375q0.265625 0.3125 0.390625 0.734375q0.140625 0.421875 0.140625 0.90625q0 0.546875 -0.125 0.984375q-0.125 0.4375 -0.359375 0.734375q-0.25 0.3125 -0.625 0.484375q-0.359375 0.171875 -0.828125 0.171875q-0.84375 0 -1.375 -0.453125q-0.53125 -0.46875 -0.65625 -1.34375l-1.25 0q0.0625 0.71875 0.34375 1.265625q0.28125 0.53125 0.734375 0.890625q0.4375 0.359375 1.0 0.546875q0.5625 0.171875 1.203125 0.171875q0.828125 0 1.4375 -0.25q0.625 -0.265625 1.03125 -0.734375q0.40625 -0.453125 0.59375 -1.09375q0.203125 -0.640625 0.203125 -1.390625q0 -0.78125 -0.21875 -1.421875q-0.203125 -0.640625 -0.609375 -1.109375q-0.40625 -0.453125 -0.984375 -0.703125q-0.5625 -0.25 -1.28125 -0.25q-0.5625 0 -1.0 0.140625q-0.421875 0.140625 -0.734375 0.3125l0.296875 -2.765625l4.21875 0l0 -1.296875l-5.34375 0l-0.515625 5.203125z" fill-rule="nonzero"/></g></svg>