<svg version="1.1" viewBox="0.0 0.0 655.0 489.0" fill="none" stroke="none" stroke-linecap="square" stroke-miterlimit="10" xmlns:xlink="http://www.w3.org/1999/xlink" xmlns="http://www.w3.org/2000/svg"><clipPath id="p.0"><path d="m0 0l655.0 0l0 489.0l-655.0 0l0 -489.0z" clip-rule="nonzero"/></clipPath><g clip-path="url(#p.0)"><path fill="#000000" fill-opacity="0.0" d="m0 0l655.0 0l0 489.0l-655.0 0z" fill-rule="evenodd"/><path fill="#ffffff" d="m-0.80052495 -0.80052495l654.9921 0l0 489.00787l-654.9921 0z" fill-rule="evenodd"/><path fill="#000000" fill-opacity="0.0" d="m139.38846 30.08924l389.00784 0l0 377.19687l-389.00784 0z" fill-rule="evenodd"/><path stroke="#000000" stroke-width="4.0" stroke-linejoin="round" stroke-linecap="butt" d="m139.38846 30.08924l389.00784 0l0 377.19687l-389.00784 0z" fill-rule="evenodd"/><path fill="#000000" fill-opacity="0.0" d="m268.88452 150.99213l130.01575 0l0 130.01575l-130.01575 0z" fill-rule="evenodd"/><path stroke="#000000" stroke-width="3.0" stroke-linejoin="round" stroke-linecap="butt" d="m268.88452 150.99213l130.01575 0l0 130.01575l-130.01575 0z" fill-rule="evenodd"/><path fill="#000000" fill-opacity="0.0" d="m280.5538 216.0l0 0c0 -29.458084 23.880493 -53.338577 53.338593 -53.338577l0 0c14.146271 0 27.713135 5.619583 37.716064 15.622498c10.00293 10.00293 15.622498 23.569809 15.622498 37.71608l0 0c0 29.458084 -23.880493 53.338593 -53.338562 53.338593l0 0c-29.4581 0 -53.338593 -23.880508 -53.338593 -53.338593z" fill-rule="evenodd"/><path stroke="#000000" stroke-width="4.0" stroke-linejoin="round" stroke-linecap="butt" d="m280.5538 216.0l0 0c0 -29.458084 23.880493 -53.338577 53.338593 -53.338577l0 0c14.146271 0 27.713135 5.619583 37.716064 15.622498c10.00293 10.00293 15.622498 23.569809 15.622498 37.71608l0 0c0 29.458084 -23.880493 53.338593 -53.338562 53.338593l0 0c-29.4581 0 -53.338593 -23.880508 -53.338593 -53.338593z" fill-rule="evenodd"/><path fill="#000000" fill-opacity="0.0" d="m249.0105 185.38058l19.874023 0l0 19.874008l-19.874023 0z" fill-rule="evenodd"/><path stroke="#000000" stroke-width="3.0" stroke-linejoin="round" stroke-linecap="butt" d="m249.0105 185.38058l19.874023 0l0 19.874008l-19.874023 0z" fill-rule="evenodd"/><path fill="#000000" fill-opacity="0.0" d="m249.0105 208.75066l19.874023 0l0 19.874008l-19.874023 0z" fill-rule="evenodd"/><path stroke="#000000" stroke-width="3.0" stroke-linejoin="round" stroke-linecap="butt" d="m249.0105 208.75066l19.874023 0l0 19.874008l-19.874023 0z" fill-rule="evenodd"/><path fill="#000000" fill-opacity="0.0" d="m249.0105 232.12073l19.874023 0l0 19.874023l-19.874023 0z" fill-rule="evenodd"/><path stroke="#000000" stroke-width="3.0" stroke-linejoin="round" stroke-linecap="butt" d="m249.0105 232.12073l19.874023 0l0 19.874023l-19.874023 0z" fill-rule="evenodd"/><path fill="#000000" fill-opacity="0.0" d="m398.90027 185.38058l19.874023 0l0 19.874008l-19.874023 0z" fill-rule="evenodd"/><path stroke="#000000" stroke-width="3.0" stroke-linejoin="round" stroke-linecap="butt" d="m398.90027 185.38058l19.874023 0l0 19.874008l-19.874023 0z" fill-rule="evenodd"/><path fill="#000000" fill-opacity="0.0" d="m398.90027 208.75066l19.874023 0l0 19.874008l-19.874023 0z" fill-rule="evenodd"/><path stroke="#000000" stroke-width="3.0" stroke-linejoin="round" stroke-linecap="butt" d="m398.90027 208.75066l19.874023 0l0 19.874008l-19.874023 0z" fill-rule="evenodd"/><path fill="#000000" fill-opacity="0.0" d="m398.90027 232.12073l19.874023 0l0 19.874023l-19.874023 0z" fill-rule="evenodd"/><path stroke="#000000" stroke-width="3.0" stroke-linejoin="round" stroke-linecap="butt" d="m398.90027 232.12073l19.874023 0l0 19.874023l-19.874023 0z" fill-rule="evenodd"/><path fill="#000000" fill-opacity="0.0" d="m429.53806 70.92388l44.06299 0l0 53.732285l-44.06299 0z" fill-rule="evenodd"/><path stroke="#000000" stroke-width="2.0" stroke-linejoin="round" stroke-linecap="butt" d="m429.53806 70.92388l44.06299 0l0 53.732285l-44.06299 0z" fill-rule="evenodd"/><path fill="#000000" fill-opacity="0.0" d="m313.4672 218.68767l0 0c0 -11.280533 9.144684 -20.425201 20.425201 -20.425201l0 0c5.4170837 0 10.612335 2.1519318 14.44278 5.9824066c3.8304749 3.8304596 5.982422 9.025696 5.982422 14.442795l0 0c0 11.280518 -9.144684 20.425186 -20.425201 20.425186l0 0c-11.280518 0 -20.425201 -9.144669 -20.425201 -20.425186z" fill-rule="evenodd"/><path stroke="#000000" stroke-width="4.0" stroke-linejoin="round" stroke-linecap="butt" d="m313.4672 218.68767l0 0c0 -11.280533 9.144684 -20.425201 20.425201 -20.425201l0 0c5.4170837 0 10.612335 2.1519318 14.44278 5.9824066c3.8304749 3.8304596 5.982422 9.025696 5.982422 14.442795l0 0c0 11.280518 -9.144684 20.425186 -20.425201 20.425186l0 0c-11.280518 0 -20.425201 -9.144669 -20.425201 -20.425186z" fill-rule="evenodd"/><path fill="#000000" fill-opacity="0.0" d="m418.5013 77.5l11.023621 0l0 11.023621l-11.023621 0z" fill-rule="evenodd"/><path stroke="#000000" stroke-width="2.0" stroke-linejoin="round" stroke-linecap="butt" d="m418.5013 77.5l11.023621 0l0 11.023621l-11.023621 0z" fill-rule="evenodd"/><path fill="#000000" fill-opacity="0.0" d="m418.5013 92.99869l11.023621 0l0 11.023621l-11.023621 0z" fill-rule="evenodd"/><path stroke="#000000" stroke-width="2.0" stroke-linejoin="round" stroke-linecap="butt" d="m418.5013 92.99869l11.023621 0l0 11.023621l-11.023621 0z" fill-rule="evenodd"/><path fill="#000000" fill-opacity="0.0" d="m418.5013 108.497375l11.023621 0l0 11.023621l-11.023621 0z" fill-rule="evenodd"/><path stroke="#000000" stroke-width="2.0" stroke-linejoin="round" stroke-linecap="butt" d="m418.5013 108.497375l11.023621 0l0 11.023621l-11.023621 0z" fill-rule="evenodd"/><path fill="#000000" fill-opacity="0.0" d="m473.5013 77.5l11.023621 0l0 11.023621l-11.023621 0z" fill-rule="evenodd"/><path stroke="#000000" stroke-width="2.0" stroke-linejoin="round" stroke-linecap="butt" d="m473.5013 77.5l11.023621 0l0 11.023621l-11.023621 0z" fill-rule="evenodd"/><path fill="#000000" fill-opacity="0.0" d="m473.5013 92.99869l11.023621 0l0 11.023621l-11.023621 0z" fill-rule="evenodd"/><path stroke="#000000" stroke-width="2.0" stroke-linejoin="round" stroke-linecap="butt" d="m473.5013 92.99869l11.023621 0l0 11.023621l-11.023621 0z" fill-rule="evenodd"/><path fill="#000000" fill-opacity="0.0" d="m473.5013 108.497375l11.023621 0l0 11.023621l-11.023621 0z" fill-rule="evenodd"/><path stroke="#000000" stroke-width="2.0" stroke-linejoin="round" stroke-linecap="butt" d="m473.5013 108.497375l11.023621 0l0 11.023621l-11.023621 0z" fill-rule="evenodd"/><path fill="#000000" fill-opacity="0.0" d="m494.37927 310.81497l0 44.06299l-53.7323 0l0 -44.06299z" fill-rule="evenodd"/><path stroke="#000000" stroke-width="2.0" stroke-linejoin="round" stroke-linecap="butt" d="m494.37927 310.81497l0 44.06299l-53.7323 0l0 -44.06299z" fill-rule="evenodd"/><path fill="#000000" fill-opacity="0.0" d="m487.80316 299.77823l0 11.023621l-11.023621 0l0 -11.023621z" fill-rule="evenodd"/><path stroke="#000000" stroke-width="2.0" stroke-linejoin="round" stroke-linecap="butt" d="m487.80316 299.77823l0 11.023621l-11.023621 0l0 -11.023621z" fill-rule="evenodd"/><path fill="#000000" fill-opacity="0.0" d="m472.30447 299.77823l0 11.023621l-11.023621 0l0 -11.023621z" fill-rule="evenodd"/><path stroke="#000000" stroke-width="2.0" stroke-linejoin="round" stroke-linecap="butt" d="m472.30447 299.77823l0 11.023621l-11.023621 0l0 -11.023621z" fill-rule="evenodd"/><path fill="#000000" fill-opacity="0.0" d="m456.8058 299.77823l0 11.023621l-11.023621 0l0 -11.023621z" fill-rule="evenodd"/><path stroke="#000000" stroke-width="2.0" stroke-linejoin="round" stroke-linecap="butt" d="m456.8058 299.77823l0 11.023621l-11.023621 0l0 -11.023621z" fill-rule="evenodd"/><path fill="#000000" fill-opacity="0.0" d="m487.80316 354.77823l0 11.023621l-11.023621 0l0 -11.023621z" fill-rule="evenodd"/><path stroke="#000000" stroke-width="2.0" stroke-linejoin="round" stroke-linecap="butt" d="m487.80316 354.77823l0 11.023621l-11.023621 0l0 -11.023621z" fill-rule="evenodd"/><path fill="#000000" fill-opacity="0.0" d="m472.30447 354.77823l0 11.023621l-11.023621 0l0 -11.023621z" fill-rule="evenodd"/><path stroke="#000000" stroke-width="2.0" stroke-linejoin="round" stroke-linecap="butt" d="m472.30447 354.77823l0 11.023621l-11.023621 0l0 -11.023621z" fill-rule="evenodd"/><path fill="#000000" fill-opacity="0.0" d="m456.8058 354.77823l0 11.023621l-11.023621 0l0 -11.023621z" fill-rule="evenodd"/><path stroke="#000000" stroke-width="2.0" stroke-linejoin="round" stroke-linecap="butt" d="m456.8058 354.77823l0 11.023621l-11.023621 0l0 -11.023621z" fill-rule="evenodd"/><path fill="#000000" fill-opacity="0.0" d="m133.0 24.501312l269.00787 0l0 84.031494l-269.00787 0z" fill-rule="evenodd"/><path fill="#000000" d="m156.15625 40.148186l-2.328125 0l-0.03125 12.828125q-0.03125 0.859375 -0.28125 1.640625q-0.25 0.78125 -0.71875 1.375q-0.46875 0.609375 -1.171875 0.96875q-0.703125 0.359375 -1.640625 0.359375q-0.921875 0 -1.625 -0.359375q-0.703125 -0.375 -1.171875 -0.96875q-0.484375 -0.59375 -0.75 -1.375q-0.25 -0.78125 -0.265625 -1.640625l-0.046875 -12.828125l-2.296875 0l-0.015625 12.828125q0.015625 1.328125 0.46875 2.5q0.453125 1.171875 1.265625 2.03125q0.796875 0.859375 1.921875 1.359375q1.140625 0.5 2.515625 0.5q1.359375 0 2.484375 -0.5q1.140625 -0.5 1.96875 -1.375q0.8125 -0.859375 1.28125 -2.015625q0.46875 -1.171875 0.46875 -2.5l-0.03125 -12.828125zm13.465103 15.21875q0 0.34375 -0.140625 0.640625q-0.125 0.296875 -0.375 0.546875q-0.390625 0.40625 -1.109375 0.640625q-0.71875 0.21875 -1.6875 0.21875q-0.609375 0 -1.234375 -0.125q-0.625 -0.140625 -1.125 -0.453125q-0.53125 -0.3125 -0.875 -0.8125q-0.34375 -0.515625 -0.390625 -1.25l-2.40625 0q0 0.890625 0.40625 1.734375q0.40625 0.828125 1.1875 1.453125q0.765625 0.640625 1.890625 1.03125q1.125 0.375 2.546875 0.375q1.25 0 2.296875 -0.296875q1.0625 -0.3125 1.828125 -0.859375q0.75 -0.546875 1.171875 -1.3125q0.421875 -0.765625 0.421875 -1.703125q0 -0.875 -0.375 -1.53125q-0.359375 -0.671875 -1.0625 -1.171875q-0.703125 -0.5 -1.734375 -0.859375q-1.03125 -0.359375 -2.328125 -0.625q-1.0 -0.203125 -1.640625 -0.40625q-0.640625 -0.203125 -1.015625 -0.46875q-0.390625 -0.265625 -0.546875 -0.578125q-0.15625 -0.328125 -0.15625 -0.75q0 -0.40625 0.1875 -0.78125q0.203125 -0.375 0.59375 -0.65625q0.375 -0.296875 0.953125 -0.453125q0.578125 -0.171875 1.34375 -0.171875q0.75 0 1.328125 0.203125q0.59375 0.203125 1.015625 0.546875q0.421875 0.34375 0.65625 0.78125q0.234375 0.421875 0.234375 0.890625l2.40625 0q0 -0.9375 -0.40625 -1.734375q-0.390625 -0.796875 -1.125 -1.390625q-0.71875 -0.609375 -1.765625 -0.9375q-1.046875 -0.34375 -2.34375 -0.34375q-1.203125 0 -2.21875 0.328125q-1.0 0.328125 -1.734375 0.875q-0.734375 0.5625 -1.140625 1.3125q-0.390625 0.75 -0.390625 1.609375q0 0.875 0.390625 1.53125q0.390625 0.65625 1.09375 1.140625q0.703125 0.5 1.703125 0.84375q1.0 0.34375 2.203125 0.59375q1.0 0.203125 1.65625 0.453125q0.671875 0.234375 1.0625 0.515625q0.40625 0.28125 0.578125 0.625q0.171875 0.34375 0.171875 0.78125zm12.855728 4.0q2.0625 0 3.453125 -0.828125q1.40625 -0.828125 2.109375 -1.890625l-1.46875 -1.15625q-0.671875 0.859375 -1.671875 1.390625q-1.0 0.515625 -2.296875 0.515625q-0.96875 0 -1.78125 -0.359375q-0.796875 -0.375 -1.375 -1.015625q-0.5625 -0.59375 -0.890625 -1.375q-0.3125 -0.78125 -0.390625 -1.8125l0 -0.09375l10.046875 0l0 -1.078125q0 -1.46875 -0.375 -2.71875q-0.359375 -1.265625 -1.109375 -2.203125q-0.765625 -0.9375 -1.90625 -1.453125q-1.125 -0.53125 -2.65625 -0.53125q-1.203125 0 -2.359375 0.5q-1.15625 0.484375 -2.046875 1.40625q-0.921875 0.9375 -1.46875 2.296875q-0.546875 1.34375 -0.546875 3.046875l0 0.546875q0 1.46875 0.5 2.71875q0.5 1.25 1.375 2.15625q0.890625 0.921875 2.125 1.4375q1.25 0.5 2.734375 0.5zm-0.3125 -12.625q0.921875 0 1.59375 0.34375q0.671875 0.328125 1.109375 0.875q0.453125 0.546875 0.6875 1.296875q0.25 0.75 0.25 1.390625l0 0.125l-7.5625 0q0.140625 -0.984375 0.5 -1.71875q0.359375 -0.75 0.875 -1.28125q0.515625 -0.5 1.15625 -0.765625q0.65625 -0.265625 1.390625 -0.265625zm13.683853 12.359375l2.421875 0l0 -12.21875l5.421875 0l0 -1.859375l-5.421875 0l0 -1.0q0 -0.875 0.21875 -1.53125q0.234375 -0.671875 0.671875 -1.09375q0.421875 -0.40625 1.046875 -0.609375q0.640625 -0.203125 1.453125 -0.203125q0.8125 0 1.515625 0.140625q0.71875 0.140625 1.25 0.328125l0.28125 -2.0q-0.34375 -0.09375 -0.671875 -0.15625q-0.3125 -0.078125 -0.640625 -0.140625q-0.5 -0.09375 -1.015625 -0.140625q-0.5 -0.0625 -1.015625 -0.0625q-1.25 0 -2.265625 0.359375q-1.015625 0.34375 -1.734375 1.03125q-0.71875 0.6875 -1.125 1.71875q-0.390625 1.015625 -0.390625 2.359375l0 1.0l-3.875 0l0 1.859375l3.875 0l0 12.21875zm21.683853 0l2.1875 0l0 -14.078125l-2.421875 0l0 10.09375q-0.203125 0.453125 -0.5 0.84375q-0.28125 0.375 -0.671875 0.65625q-0.46875 0.34375 -1.109375 0.53125q-0.640625 0.1875 -1.4375 0.1875q-0.703125 0 -1.234375 -0.1875q-0.515625 -0.1875 -0.875 -0.640625q-0.375 -0.4375 -0.5625 -1.1875q-0.171875 -0.765625 -0.171875 -1.90625l0 -8.390625l-2.40625 0l0 8.359375q0 1.578125 0.34375 2.703125q0.34375 1.125 0.984375 1.859375q0.640625 0.734375 1.53125 1.078125q0.90625 0.34375 2.0 0.34375q1.390625 0 2.4375 -0.578125q1.0625 -0.578125 1.765625 -1.625l0.140625 1.9375zm7.090103 -20.0l0 2.109375l4.796875 0l0 15.8125l-4.796875 0l0 2.078125l11.796875 0l0 -2.078125l-4.59375 0l0 -17.921875l-7.203125 0zm41.539597 15.203125q0 0.78125 -0.34375 1.359375q-0.34375 0.5625 -0.875 0.921875q-0.53125 0.375 -1.21875 0.5625q-0.671875 0.171875 -1.375 0.171875q-0.890625 0 -1.640625 -0.234375q-0.75 -0.25 -1.3125 -0.734375q-0.578125 -0.46875 -0.953125 -1.140625q-0.359375 -0.6875 -0.46875 -1.578125l-2.4687653 0q0.046875 1.21875 0.54689026 2.21875q0.5 1.0 1.359375 1.734375q0.96875 0.859375 2.265625 1.328125q1.3125 0.453125 2.671875 0.453125q1.125 0 2.25 -0.3125q1.140625 -0.328125 2.046875 -0.96875q0.890625 -0.625 1.453125 -1.578125q0.5625 -0.953125 0.5625 -2.21875q0 -1.265625 -0.53125 -2.21875q-0.515625 -0.96875 -1.375 -1.640625q-0.875 -0.71875 -1.9375 -1.171875q-1.046875 -0.46875 -2.09375 -0.796875q-0.640625 -0.1875 -1.359375 -0.4375q-0.71875 -0.265625 -1.34375 -0.65625q-0.625 -0.390625 -1.03125 -0.953125q-0.390625 -0.578125 -0.40625 -1.390625q0 -0.765625 0.296875 -1.328125q0.3125 -0.578125 0.828125 -0.96875q0.515625 -0.390625 1.171875 -0.578125q0.65625 -0.203125 1.34375 -0.203125q0.859375 0 1.546875 0.265625q0.6875 0.265625 1.171875 0.75q0.5 0.484375 0.796875 1.15625q0.296875 0.671875 0.40625 1.484375l2.46875 0q-0.03125 -1.296875 -0.5625 -2.34375q-0.53125 -1.0625 -1.40625 -1.8125q-0.890625 -0.734375 -2.046875 -1.140625q-1.140625 -0.421875 -2.375 -0.421875q-1.125 0 -2.234375 0.359375q-1.09375 0.34375 -1.96875 1.0q-0.875 0.671875 -1.421875 1.640625q-0.53125 0.953125 -0.53125 2.171875q0 1.21875 0.53125 2.125q0.546875 0.90625 1.40625 1.578125q0.84375 0.640625 1.875 1.109375q1.046875 0.46875 2.046875 0.78125q0.6875 0.234375 1.4375 0.515625q0.75 0.265625 1.375 0.65625q0.625 0.421875 1.015625 1.03125q0.40625 0.59375 0.40625 1.453125zm12.293213 5.0625q2.0625 0 3.453125 -0.828125q1.40625 -0.828125 2.109375 -1.890625l-1.46875 -1.15625q-0.671875 0.859375 -1.671875 1.390625q-1.0 0.515625 -2.296875 0.515625q-0.96875 0 -1.78125 -0.359375q-0.796875 -0.375 -1.375 -1.015625q-0.5625 -0.59375 -0.890625 -1.375q-0.3125 -0.78125 -0.390625 -1.8125l0 -0.09375l10.046875 0l0 -1.078125q0 -1.46875 -0.375 -2.71875q-0.359375 -1.265625 -1.109375 -2.203125q-0.765625 -0.9375 -1.90625 -1.453125q-1.125 -0.53125 -2.65625 -0.53125q-1.203125 0 -2.359375 0.5q-1.15625 0.484375 -2.046875 1.40625q-0.921875 0.9375 -1.46875 2.296875q-0.546875 1.34375 -0.546875 3.046875l0 0.546875q0 1.46875 0.5 2.71875q0.5 1.25 1.375 2.15625q0.890625 0.921875 2.125 1.4375q1.25 0.5 2.734375 0.5zm-0.3125 -12.625q0.921875 0 1.59375 0.34375q0.671875 0.328125 1.109375 0.875q0.453125 0.546875 0.6875 1.296875q0.25 0.75 0.25 1.390625l0 0.125l-7.5625 0q0.140625 -0.984375 0.5 -1.71875q0.359375 -0.75 0.875 -1.28125q0.515625 -0.5 1.15625 -0.765625q0.65625 -0.265625 1.390625 -0.265625zm10.090088 12.359375l2.40625 0l0 -10.09375q0.25 -0.46875 0.578125 -0.84375q0.328125 -0.375 0.71875 -0.65625q0.484375 -0.328125 1.046875 -0.515625q0.578125 -0.1875 1.25 -0.1875q0.765625 0 1.359375 0.1875q0.59375 0.171875 1.015625 0.578125q0.390625 0.40625 0.59375 1.0625q0.21875 0.640625 0.21875 1.578125l0 8.890625l2.40625 0l0 -8.9375q0 -1.40625 -0.34375 -2.421875q-0.34375 -1.03125 -0.984375 -1.703125q-0.640625 -0.65625 -1.546875 -0.96875q-0.890625 -0.3125 -2.0 -0.3125q-0.828125 0.015625 -1.5625 0.25q-0.734375 0.21875 -1.359375 0.640625q-0.40625 0.265625 -0.78125 0.640625q-0.375 0.375 -0.6875 0.8125l-0.171875 -2.078125l-2.15625 0l0 14.078125zm25.355743 -3.734375q0 0.34375 -0.140625 0.640625q-0.125 0.296875 -0.375 0.546875q-0.390625 0.40625 -1.109375 0.640625q-0.71875 0.21875 -1.6875 0.21875q-0.609375 0 -1.234375 -0.125q-0.625 -0.140625 -1.125 -0.453125q-0.53125 -0.3125 -0.875 -0.8125q-0.34375 -0.515625 -0.390625 -1.25l-2.40625 0q0 0.890625 0.40625 1.734375q0.40625 0.828125 1.1875 1.453125q0.765625 0.640625 1.890625 1.03125q1.125 0.375 2.546875 0.375q1.25 0 2.296875 -0.296875q1.0625 -0.3125 1.828125 -0.859375q0.75 -0.546875 1.171875 -1.3125q0.421875 -0.765625 0.421875 -1.703125q0 -0.875 -0.375 -1.53125q-0.359375 -0.671875 -1.0625 -1.171875q-0.703125 -0.5 -1.734375 -0.859375q-1.03125 -0.359375 -2.328125 -0.625q-1.0 -0.203125 -1.640625 -0.40625q-0.640625 -0.203125 -1.015625 -0.46875q-0.390625 -0.265625 -0.546875 -0.578125q-0.15625 -0.328125 -0.15625 -0.75q0 -0.40625 0.1875 -0.78125q0.203125 -0.375 0.59375 -0.65625q0.375 -0.296875 0.953125 -0.453125q0.578125 -0.171875 1.34375 -0.171875q0.75 0 1.328125 0.203125q0.59375 0.203125 1.015625 0.546875q0.421875 0.34375 0.65625 0.78125q0.234375 0.421875 0.234375 0.890625l2.40625 0q0 -0.9375 -0.40625 -1.734375q-0.390625 -0.796875 -1.125 -1.390625q-0.71875 -0.609375 -1.765625 -0.9375q-1.046875 -0.34375 -2.34375 -0.34375q-1.203125 0 -2.21875 0.328125q-1.0 0.328125 -1.734375 0.875q-0.734375 0.5625 -1.140625 1.3125q-0.390625 0.75 -0.390625 1.609375q0 0.875 0.390625 1.53125q0.390625 0.65625 1.09375 1.140625q0.703125 0.5 1.703125 0.84375q1.0 0.34375 2.203125 0.59375q1.0 0.203125 1.65625 0.453125q0.671875 0.234375 1.0625 0.515625q0.40625 0.28125 0.578125 0.625q0.171875 0.34375 0.171875 0.78125zm5.9651184 -3.4375l0 0.28125q0 1.53125 0.4375 2.828125q0.4375 1.296875 1.28125 2.265625q0.8125 0.96875 2.0 1.515625q1.203125 0.546875 2.6875 0.546875q1.484375 0 2.671875 -0.546875q1.1875 -0.546875 2.015625 -1.515625q0.828125 -0.96875 1.265625 -2.265625q0.4375 -1.296875 0.4375 -2.828125l0 -0.28125q0 -1.515625 -0.4375 -2.828125q-0.4375 -1.3125 -1.265625 -2.28125q-0.828125 -0.953125 -2.03125 -1.5q-1.1875 -0.5625 -2.671875 -0.5625q-1.484375 0 -2.671875 0.5625q-1.1875 0.546875 -2.0 1.5q-0.84375 0.96875 -1.28125 2.28125q-0.4375 1.3125 -0.4375 2.828125zm2.40625 0.28125l0 -0.28125q0 -1.03125 0.234375 -1.96875q0.25 -0.953125 0.765625 -1.65625q0.5 -0.71875 1.234375 -1.140625q0.734375 -0.421875 1.75 -0.421875q1.0 0 1.75 0.421875q0.75 0.421875 1.25 1.140625q0.5 0.703125 0.75 1.65625q0.25 0.9375 0.25 1.96875l0 0.28125q0 1.046875 -0.25 2.0q-0.234375 0.9375 -0.734375 1.65625q-0.515625 0.703125 -1.265625 1.125q-0.734375 0.421875 -1.734375 0.421875q-1.0 0 -1.75 -0.421875q-0.75 -0.421875 -1.25 -1.125q-0.515625 -0.71875 -0.765625 -1.65625q-0.234375 -0.953125 -0.234375 -2.0zm23.496338 -7.453125q-1.546875 0 -2.75 0.671875q-1.203125 0.671875 -2.0625 1.828125l-0.015625 -0.359375l-0.09375 -1.875l-2.296875 0l0 14.078125l2.421875 0l0 -9.03125q0.234375 -0.65625 0.59375 -1.171875q0.359375 -0.53125 0.84375 -0.90625q0.53125 -0.40625 1.234375 -0.625q0.71875 -0.21875 1.609375 -0.21875q0.6875 0 1.3125 0.078125q0.640625 0.0625 1.34375 0.21875l0.328125 -2.34375q-0.375 -0.15625 -1.09375 -0.25q-0.71875 -0.09375 -1.375 -0.09375zm16.121338 10.609375q0 0.34375 -0.140625 0.640625q-0.125 0.296875 -0.375 0.546875q-0.390625 0.40625 -1.109375 0.640625q-0.71875 0.21875 -1.6875 0.21875q-0.609375 0 -1.234375 -0.125q-0.625 -0.140625 -1.125 -0.453125q-0.53125 -0.3125 -0.875 -0.8125q-0.34375 -0.515625 -0.390625 -1.25l-2.40625 0q0 0.890625 0.40625 1.734375q0.40625 0.828125 1.1875 1.453125q0.765625 0.640625 1.890625 1.03125q1.125 0.375 2.546875 0.375q1.25 0 2.296875 -0.296875q1.0625 -0.3125 1.828125 -0.859375q0.75 -0.546875 1.171875 -1.3125q0.421875 -0.765625 0.421875 -1.703125q0 -0.875 -0.375 -1.53125q-0.359375 -0.671875 -1.0625 -1.171875q-0.703125 -0.5 -1.734375 -0.859375q-1.03125 -0.359375 -2.328125 -0.625q-1.0 -0.203125 -1.640625 -0.40625q-0.640625 -0.203125 -1.015625 -0.46875q-0.390625 -0.265625 -0.546875 -0.578125q-0.15625 -0.328125 -0.15625 -0.75q0 -0.40625 0.1875 -0.78125q0.203125 -0.375 0.59375 -0.65625q0.375 -0.296875 0.953125 -0.453125q0.578125 -0.171875 1.34375 -0.171875q0.75 0 1.328125 0.203125q0.59375 0.203125 1.015625 0.546875q0.421875 0.34375 0.65625 0.78125q0.234375 0.421875 0.234375 0.890625l2.40625 0q0 -0.9375 -0.40625 -1.734375q-0.390625 -0.796875 -1.125 -1.390625q-0.71875 -0.609375 -1.765625 -0.9375q-1.046875 -0.34375 -2.34375 -0.34375q-1.203125 0 -2.21875 0.328125q-1.0 0.328125 -1.734375 0.875q-0.734375 0.5625 -1.140625 1.3125q-0.390625 0.75 -0.390625 1.609375q0 0.875 0.390625 1.53125q0.390625 0.65625 1.09375 1.140625q0.703125 0.5 1.703125 0.84375q1.0 0.34375 2.203125 0.59375q1.0 0.203125 1.65625 0.453125q0.671875 0.234375 1.0625 0.515625q0.40625 0.28125 0.578125 0.625q0.171875 0.34375 0.171875 0.78125z" fill-rule="nonzero"/><path fill="#000000" d="m146.89062 83.50756l3.734375 0q1.28125 -0.015625 2.421875 -0.390625q1.140625 -0.390625 2.0 -1.09375q0.859375 -0.71875 1.359375 -1.765625q0.5 -1.046875 0.5 -2.421875q0 -1.359375 -0.5 -2.40625q-0.5 -1.0625 -1.359375 -1.78125q-0.859375 -0.71875 -2.0 -1.09375q-1.140625 -0.375 -2.421875 -0.40625l-6.140625 0l0 18.953125l2.40625 0l0 -7.59375zm0 -1.984375l0 -7.390625l3.734375 0q0.84375 0.015625 1.546875 0.28125q0.703125 0.25 1.234375 0.734375q0.5 0.484375 0.796875 1.171875q0.296875 0.6875 0.296875 1.546875q0 0.859375 -0.296875 1.53125q-0.296875 0.671875 -0.8125 1.140625q-0.515625 0.46875 -1.21875 0.71875q-0.703125 0.25 -1.546875 0.265625l-3.734375 0zm19.590103 9.84375q2.0625 0 3.453125 -0.828125q1.40625 -0.828125 2.109375 -1.890625l-1.46875 -1.15625q-0.671875 0.859375 -1.671875 1.390625q-1.0 0.515625 -2.296875 0.515625q-0.96875 0 -1.78125 -0.359375q-0.796875 -0.375 -1.375 -1.015625q-0.5625 -0.59375 -0.890625 -1.375q-0.3125 -0.78125 -0.390625 -1.8125l0 -0.09375l10.046875 0l0 -1.078125q0 -1.46875 -0.375 -2.71875q-0.359375 -1.265625 -1.109375 -2.203125q-0.765625 -0.9375 -1.90625 -1.453125q-1.125 -0.53125 -2.65625 -0.53125q-1.203125 0 -2.359375 0.5q-1.15625 0.484375 -2.046875 1.40625q-0.921875 0.9375 -1.46875 2.296875q-0.546875 1.34375 -0.546875 3.046875l0 0.546875q0 1.46875 0.5 2.71875q0.5 1.25 1.375 2.15625q0.890625 0.921875 2.125 1.4375q1.25 0.5 2.734375 0.5zm-0.3125 -12.625q0.921875 0 1.59375 0.34375q0.671875 0.328125 1.109375 0.875q0.453125 0.546875 0.6875 1.296875q0.25 0.75 0.25 1.390625l0 0.125l-7.5625 0q0.140625 -0.984375 0.5 -1.71875q0.359375 -0.75 0.875 -1.28125q0.515625 -0.5 1.15625 -0.765625q0.65625 -0.265625 1.390625 -0.265625zm19.324478 -1.984375q-1.546875 0 -2.75 0.671875q-1.203125 0.671875 -2.0625 1.828125l-0.015625 -0.359375l-0.09375 -1.875l-2.296875 0l0 14.078125l2.421875 0l0 -9.03125q0.234375 -0.65625 0.59375 -1.171875q0.359375 -0.53125 0.84375 -0.90625q0.53125 -0.40625 1.234375 -0.625q0.71875 -0.21875 1.609375 -0.21875q0.6875 0 1.3125 0.078125q0.640625 0.0625 1.34375 0.21875l0.328125 -2.34375q-0.375 -0.15625 -1.09375 -0.25q-0.71875 -0.09375 -1.375 -0.09375zm16.121353 10.609375q0 0.34375 -0.140625 0.640625q-0.125 0.296875 -0.375 0.546875q-0.390625 0.40625 -1.109375 0.640625q-0.71875 0.21875 -1.6875 0.21875q-0.609375 0 -1.234375 -0.125q-0.625 -0.140625 -1.125 -0.453125q-0.53125 -0.3125 -0.875 -0.8125q-0.34375 -0.515625 -0.390625 -1.25l-2.40625 0q0 0.890625 0.40625 1.734375q0.40625 0.828125 1.1875 1.453125q0.765625 0.640625 1.890625 1.03125q1.125 0.375 2.546875 0.375q1.25 0 2.296875 -0.296875q1.0625 -0.3125 1.828125 -0.859375q0.75 -0.546875 1.171875 -1.3125q0.421875 -0.765625 0.421875 -1.703125q0 -0.875 -0.375 -1.53125q-0.359375 -0.671875 -1.0625 -1.171875q-0.703125 -0.5 -1.734375 -0.859375q-1.03125 -0.359375 -2.328125 -0.625q-1.0 -0.203125 -1.640625 -0.40625q-0.640625 -0.203125 -1.015625 -0.46875q-0.390625 -0.265625 -0.546875 -0.578125q-0.15625 -0.328125 -0.15625 -0.75q0 -0.40625 0.1875 -0.78125q0.203125 -0.375 0.59375 -0.65625q0.375 -0.296875 0.953125 -0.453125q0.578125 -0.171875 1.34375 -0.171875q0.75 0 1.328125 0.203125q0.59375 0.203125 1.015625 0.546875q0.421875 0.34375 0.65625 0.78125q0.234375 0.421875 0.234375 0.890625l2.40625 0q0 -0.9375 -0.40625 -1.734375q-0.390625 -0.796875 -1.125 -1.390625q-0.71875 -0.609375 -1.765625 -0.9375q-1.046875 -0.34375 -2.34375 -0.34375q-1.203125 0 -2.21875 0.328125q-1.0 0.328125 -1.734375 0.875q-0.734375 0.5625 -1.140625 1.3125q-0.390625 0.75 -0.390625 1.609375q0 0.875 0.390625 1.53125q0.390625 0.65625 1.09375 1.140625q0.703125 0.5 1.703125 0.84375q1.0 0.34375 2.203125 0.59375q1.0 0.203125 1.65625 0.453125q0.671875 0.234375 1.0625 0.515625q0.40625 0.28125 0.578125 0.625q0.171875 0.34375 0.171875 0.78125zm5.965103 -3.4375l0 0.28125q0 1.53125 0.4375 2.828125q0.4375 1.296875 1.28125 2.265625q0.8125 0.96875 2.0 1.515625q1.203125 0.546875 2.6875 0.546875q1.484375 0 2.671875 -0.546875q1.1875 -0.546875 2.015625 -1.515625q0.828125 -0.96875 1.265625 -2.265625q0.4375 -1.296875 0.4375 -2.828125l0 -0.28125q0 -1.515625 -0.4375 -2.828125q-0.4375 -1.3125 -1.265625 -2.28125q-0.828125 -0.953125 -2.03125 -1.5q-1.1875 -0.5625 -2.671875 -0.5625q-1.484375 0 -2.671875 0.5625q-1.1875 0.546875 -2.0 1.5q-0.84375 0.96875 -1.28125 2.28125q-0.4375 1.3125 -0.4375 2.828125zm2.40625 0.28125l0 -0.28125q0 -1.03125 0.234375 -1.96875q0.25 -0.953125 0.765625 -1.65625q0.5 -0.71875 1.234375 -1.140625q0.734375 -0.421875 1.75 -0.421875q1.0 0 1.75 0.421875q0.75 0.421875 1.25 1.140625q0.5 0.703125 0.75 1.65625q0.25 0.9375 0.25 1.96875l0 0.28125q0 1.046875 -0.25 2.0q-0.234375 0.9375 -0.734375 1.65625q-0.515625 0.703125 -1.265625 1.125q-0.734375 0.421875 -1.734375 0.421875q-1.0 0 -1.75 -0.421875q-0.75 -0.421875 -1.25 -1.125q-0.515625 -0.71875 -0.765625 -1.65625q-0.234375 -0.953125 -0.234375 -2.0zm14.261978 6.890625l2.40625 0l0 -10.09375q0.25 -0.46875 0.578125 -0.84375q0.328125 -0.375 0.71875 -0.65625q0.484375 -0.328125 1.046875 -0.515625q0.578125 -0.1875 1.25 -0.1875q0.765625 0 1.359375 0.1875q0.59375 0.171875 1.015625 0.578125q0.390625 0.40625 0.59375 1.0625q0.21875 0.640625 0.21875 1.578125l0 8.890625l2.40625 0l0 -8.9375q0 -1.40625 -0.34375 -2.421875q-0.34375 -1.03125 -0.984375 -1.703125q-0.640625 -0.65625 -1.546875 -0.96875q-0.890625 -0.3125 -2.0 -0.3125q-0.828125 0.015625 -1.5625 0.25q-0.734375 0.21875 -1.359375 0.640625q-0.40625 0.265625 -0.78125 0.640625q-0.375 0.375 -0.6875 0.8125l-0.171875 -2.078125l-2.15625 0l0 14.078125zm41.914597 -4.796875q0 0.78125 -0.34375 1.359375q-0.34375 0.5625 -0.875 0.921875q-0.53125 0.375 -1.21875 0.5625q-0.671875 0.171875 -1.375 0.171875q-0.890625 0 -1.640625 -0.234375q-0.75 -0.25 -1.3125 -0.734375q-0.578125 -0.46875 -0.953125 -1.140625q-0.359375 -0.6875 -0.46875 -1.578125l-2.4687653 0q0.046875 1.21875 0.54689026 2.21875q0.5 1.0 1.359375 1.734375q0.96875 0.859375 2.265625 1.328125q1.3125 0.453125 2.671875 0.453125q1.125 0 2.25 -0.3125q1.140625 -0.328125 2.046875 -0.96875q0.890625 -0.625 1.453125 -1.578125q0.5625 -0.953125 0.5625 -2.21875q0 -1.265625 -0.53125 -2.21875q-0.515625 -0.96875 -1.375 -1.640625q-0.875 -0.71875 -1.9375 -1.171875q-1.046875 -0.46875 -2.09375 -0.796875q-0.640625 -0.1875 -1.359375 -0.4375q-0.71875 -0.265625 -1.34375 -0.65625q-0.625 -0.390625 -1.03125 -0.953125q-0.390625 -0.578125 -0.40625 -1.390625q0 -0.765625 0.296875 -1.328125q0.3125 -0.578125 0.828125 -0.96875q0.515625 -0.390625 1.171875 -0.578125q0.65625 -0.203125 1.34375 -0.203125q0.859375 0 1.546875 0.265625q0.6875 0.265625 1.171875 0.75q0.5 0.484375 0.796875 1.15625q0.296875 0.671875 0.40625 1.484375l2.46875 0q-0.03125 -1.296875 -0.5625 -2.34375q-0.53125 -1.0625 -1.40625 -1.8125q-0.890625 -0.734375 -2.046875 -1.140625q-1.140625 -0.421875 -2.375 -0.421875q-1.125 0 -2.234375 0.359375q-1.09375 0.34375 -1.96875 1.0q-0.875 0.671875 -1.421875 1.640625q-0.53125 0.953125 -0.53125 2.171875q0 1.21875 0.53125 2.125q0.546875 0.90625 1.40625 1.578125q0.84375 0.640625 1.875 1.109375q1.046875 0.46875 2.046875 0.78125q0.6875 0.234375 1.4375 0.515625q0.75 0.265625 1.375 0.65625q0.625 0.421875 1.015625 1.03125q0.40625 0.59375 0.40625 1.453125zm12.293213 5.0625q2.0625 0 3.453125 -0.828125q1.40625 -0.828125 2.109375 -1.890625l-1.46875 -1.15625q-0.671875 0.859375 -1.671875 1.390625q-1.0 0.515625 -2.296875 0.515625q-0.96875 0 -1.78125 -0.359375q-0.796875 -0.375 -1.375 -1.015625q-0.5625 -0.59375 -0.890625 -1.375q-0.3125 -0.78125 -0.390625 -1.8125l0 -0.09375l10.046875 0l0 -1.078125q0 -1.46875 -0.375 -2.71875q-0.359375 -1.265625 -1.109375 -2.203125q-0.765625 -0.9375 -1.90625 -1.453125q-1.125 -0.53125 -2.65625 -0.53125q-1.203125 0 -2.359375 0.5q-1.15625 0.484375 -2.046875 1.40625q-0.921875 0.9375 -1.46875 2.296875q-0.546875 1.34375 -0.546875 3.046875l0 0.546875q0 1.46875 0.5 2.71875q0.5 1.25 1.375 2.15625q0.890625 0.921875 2.125 1.4375q1.25 0.5 2.734375 0.5zm-0.3125 -12.625q0.921875 0 1.59375 0.34375q0.671875 0.328125 1.109375 0.875q0.453125 0.546875 0.6875 1.296875q0.25 0.75 0.25 1.390625l0 0.125l-7.5625 0q0.140625 -0.984375 0.5 -1.71875q0.359375 -0.75 0.875 -1.28125q0.515625 -0.5 1.15625 -0.765625q0.65625 -0.265625 1.390625 -0.265625zm10.090088 12.359375l2.40625 0l0 -10.09375q0.25 -0.46875 0.578125 -0.84375q0.328125 -0.375 0.71875 -0.65625q0.484375 -0.328125 1.046875 -0.515625q0.578125 -0.1875 1.25 -0.1875q0.765625 0 1.359375 0.1875q0.59375 0.171875 1.015625 0.578125q0.390625 0.40625 0.59375 1.0625q0.21875 0.640625 0.21875 1.578125l0 8.890625l2.40625 0l0 -8.9375q0 -1.40625 -0.34375 -2.421875q-0.34375 -1.03125 -0.984375 -1.703125q-0.640625 -0.65625 -1.546875 -0.96875q-0.890625 -0.3125 -2.0 -0.3125q-0.828125 0.015625 -1.5625 0.25q-0.734375 0.21875 -1.359375 0.640625q-0.40625 0.265625 -0.78125 0.640625q-0.375 0.375 -0.6875 0.8125l-0.171875 -2.078125l-2.15625 0l0 14.078125zm25.355743 -3.734375q0 0.34375 -0.140625 0.640625q-0.125 0.296875 -0.375 0.546875q-0.390625 0.40625 -1.109375 0.640625q-0.71875 0.21875 -1.6875 0.21875q-0.609375 0 -1.234375 -0.125q-0.625 -0.140625 -1.125 -0.453125q-0.53125 -0.3125 -0.875 -0.8125q-0.34375 -0.515625 -0.390625 -1.25l-2.40625 0q0 0.890625 0.40625 1.734375q0.40625 0.828125 1.1875 1.453125q0.765625 0.640625 1.890625 1.03125q1.125 0.375 2.546875 0.375q1.25 0 2.296875 -0.296875q1.0625 -0.3125 1.828125 -0.859375q0.75 -0.546875 1.171875 -1.3125q0.421875 -0.765625 0.421875 -1.703125q0 -0.875 -0.375 -1.53125q-0.359375 -0.671875 -1.0625 -1.171875q-0.703125 -0.5 -1.734375 -0.859375q-1.03125 -0.359375 -2.328125 -0.625q-1.0 -0.203125 -1.640625 -0.40625q-0.640625 -0.203125 -1.015625 -0.46875q-0.390625 -0.265625 -0.546875 -0.578125q-0.15625 -0.328125 -0.15625 -0.75q0 -0.40625 0.1875 -0.78125q0.203125 -0.375 0.59375 -0.65625q0.375 -0.296875 0.953125 -0.453125q0.578125 -0.171875 1.34375 -0.171875q0.75 0 1.328125 0.203125q0.59375 0.203125 1.015625 0.546875q0.421875 0.34375 0.65625 0.78125q0.234375 0.421875 0.234375 0.890625l2.40625 0q0 -0.9375 -0.40625 -1.734375q-0.390625 -0.796875 -1.125 -1.390625q-0.71875 -0.609375 -1.765625 -0.9375q-1.046875 -0.34375 -2.34375 -0.34375q-1.203125 0 -2.21875 0.328125q-1.0 0.328125 -1.734375 0.875q-0.734375 0.5625 -1.140625 1.3125q-0.390625 0.75 -0.390625 1.609375q0 0.875 0.390625 1.53125q0.390625 0.65625 1.09375 1.140625q0.703125 0.5 1.703125 0.84375q1.0 0.34375 2.203125 0.59375q1.0 0.203125 1.65625 0.453125q0.671875 0.234375 1.0625 0.515625q0.40625 0.28125 0.578125 0.625q0.171875 0.34375 0.171875 0.78125zm5.9651184 -3.4375l0 0.28125q0 1.53125 0.4375 2.828125q0.4375 1.296875 1.28125 2.265625q0.8125 0.96875 2.0 1.515625q1.203125 0.546875 2.6875 0.546875q1.484375 0 2.671875 -0.546875q1.1875 -0.546875 2.015625 -1.515625q0.828125 -0.96875 1.265625 -2.265625q0.4375 -1.296875 0.4375 -2.828125l0 -0.28125q0 -1.515625 -0.4375 -2.828125q-0.4375 -1.3125 -1.265625 -2.28125q-0.828125 -0.953125 -2.03125 -1.5q-1.1875 -0.5625 -2.671875 -0.5625q-1.484375 0 -2.671875 0.5625q-1.1875 0.546875 -2.0 1.5q-0.84375 0.96875 -1.28125 2.28125q-0.4375 1.3125 -0.4375 2.828125zm2.40625 0.28125l0 -0.28125q0 -1.03125 0.234375 -1.96875q0.25 -0.953125 0.765625 -1.65625q0.5 -0.71875 1.234375 -1.140625q0.734375 -0.421875 1.75 -0.421875q1.0 0 1.75 0.421875q0.75 0.421875 1.25 1.140625q0.5 0.703125 0.75 1.65625q0.25 0.9375 0.25 1.96875l0 0.28125q0 1.046875 -0.25 2.0q-0.234375 0.9375 -0.734375 1.65625q-0.515625 0.703125 -1.265625 1.125q-0.734375 0.421875 -1.734375 0.421875q-1.0 0 -1.75 -0.421875q-0.75 -0.421875 -1.25 -1.125q-0.515625 -0.71875 -0.765625 -1.65625q-0.234375 -0.953125 -0.234375 -2.0zm23.496338 -7.453125q-1.546875 0 -2.75 0.671875q-1.203125 0.671875 -2.0625 1.828125l-0.015625 -0.359375l-0.09375 -1.875l-2.296875 0l0 14.078125l2.421875 0l0 -9.03125q0.234375 -0.65625 0.59375 -1.171875q0.359375 -0.53125 0.84375 -0.90625q0.53125 -0.40625 1.234375 -0.625q0.71875 -0.21875 1.609375 -0.21875q0.6875 0 1.3125 0.078125q0.640625 0.0625 1.34375 0.21875l0.328125 -2.34375q-0.375 -0.15625 -1.09375 -0.25q-0.71875 -0.09375 -1.375 -0.09375z" fill-rule="nonzero"/><path fill="#000000" fill-opacity="0.0" d="m229.50131 91.50131l97.00787 0l0 51.716537l-97.00787 0z" fill-rule="evenodd"/><path fill="#000000" d="m245.40756 126.10131l2.09375 0l5.984375 -18.953125l-2.5625 0l-4.203125 14.125l-0.28125 0.953125l-0.265625 -0.921875l-4.171875 -14.15625l-2.578125 0l5.984375 18.953125zm19.168243 0l0 -18.953125l-0.203125 0l-7.171875 2.765625l0 2.203125l4.96875 -1.890625l0 15.875l2.40625 0zm12.371338 -1.5625q0 0.75 0.46875 1.28125q0.484375 0.53125 1.421875 0.53125q0.921875 0 1.40625 -0.515625q0.5 -0.53125 0.5 -1.296875q0 -0.78125 -0.484375 -1.3125q-0.484375 -0.546875 -1.421875 -0.546875q-0.953125 0 -1.421875 0.546875q-0.46875 0.546875 -0.46875 1.3125zm23.699493 -5.6875l0 -4.4375q0 -1.8125 -0.421875 -3.203125q-0.40625 -1.40625 -1.1875 -2.375q-0.796875 -0.953125 -1.9375 -1.453125q-1.140625 -0.5 -2.59375 -0.5q-1.4375 0 -2.578125 0.5q-1.140625 0.5 -1.921875 1.453125q-0.796875 0.96875 -1.21875 2.375q-0.40625 1.390625 -0.40625 3.203125l0 4.4375q0 1.8125 0.40625 3.21875q0.421875 1.390625 1.21875 2.34375q0.796875 0.96875 1.9375 1.46875q1.140625 0.484375 2.59375 0.484375q1.453125 0 2.578125 -0.5q1.140625 -0.5 1.921875 -1.453125q0.78125 -0.953125 1.1875 -2.34375q0.421875 -1.40625 0.421875 -3.21875zm-9.84375 -0.484375q0 -0.328125 0 -0.65625q0 -0.328125 0 -0.65625l0 -3.171875q0 -1.328125 0.265625 -2.328125q0.265625 -1.015625 0.8125 -1.65625q0.453125 -0.515625 1.109375 -0.78125q0.65625 -0.265625 1.515625 -0.265625q0.84375 0 1.484375 0.25q0.65625 0.25 1.09375 0.75q0.453125 0.46875 0.71875 1.203125q0.265625 0.71875 0.375 1.65625l-7.375 5.65625zm7.421875 1.0q0 1.390625 -0.28125 2.421875q-0.265625 1.015625 -0.875 1.65625q-0.4375 0.46875 -1.078125 0.71875q-0.640625 0.25 -1.453125 0.25q-0.78125 0 -1.40625 -0.21875q-0.625 -0.234375 -1.0625 -0.6875q-0.484375 -0.46875 -0.796875 -1.1875q-0.296875 -0.71875 -0.40625 -1.671875l7.359375 -5.640625q0 0.375 0 0.921875q0 0.546875 0 0.75l0 2.6875z" fill-rule="nonzero"/><path fill="#000000" fill-opacity="0.0" d="m194.0 129.4252l0 0c0 -11.280533 9.144669 -20.425201 20.425201 -20.425201l0 0c5.417099 0 10.61232 2.1519318 14.442795 5.982399c3.8304596 3.8304672 5.9823914 9.025696 5.9823914 14.442802l0 0c0 11.280518 -9.144669 20.425186 -20.425186 20.425186l0 0c-11.280533 0 -20.425201 -9.144669 -20.425201 -20.425186z" fill-rule="evenodd"/><path stroke="#000000" stroke-width="2.0" stroke-linejoin="round" stroke-linecap="butt" d="m194.0 129.4252l0 0c0 -11.280533 9.144669 -20.425201 20.425201 -20.425201l0 0c5.417099 0 10.61232 2.1519318 14.442795 5.982399c3.8304596 3.8304672 5.9823914 9.025696 5.9823914 14.442802l0 0c0 11.280518 -9.144669 20.425186 -20.425186 20.425186l0 0c-11.280533 0 -20.425201 -9.144669 -20.425201 -20.425186z" fill-rule="evenodd"/><path fill="#000000" fill-opacity="0.0" d="m150.49869 375.2047l0 0c0 -11.280518 9.144669 -20.42517 20.425201 -20.42517l0 0c5.417099 0 10.61232 2.1519165 14.442795 5.9823914c3.8304596 3.8304749 5.9823914 9.025696 5.9823914 14.44278l0 0c0 11.280548 -9.144669 20.425201 -20.425186 20.425201l0 0c-11.280533 0 -20.425201 -9.144653 -20.425201 -20.425201z" fill-rule="evenodd"/><path stroke="#000000" stroke-width="2.0" stroke-linejoin="round" stroke-linecap="butt" d="m150.49869 375.2047l0 0c0 -11.280518 9.144669 -20.42517 20.425201 -20.42517l0 0c5.417099 0 10.61232 2.1519165 14.442795 5.9823914c3.8304596 3.8304749 5.9823914 9.025696 5.9823914 14.44278l0 0c0 11.280548 -9.144669 20.425201 -20.425186 20.425201l0 0c-11.280533 0 -20.425201 -9.144653 -20.425201 -20.425201z" fill-rule="evenodd"/><path fill="#000000" fill-opacity="0.0" d="m79.0 374.0l0 -336.0" fill-rule="evenodd"/><path stroke="#000000" stroke-width="4.0" stroke-linejoin="round" stroke-linecap="butt" d="m79.0 374.0l0 -312.0" fill-rule="evenodd"/><path fill="#000000" stroke="#000000" stroke-width="4.0" stroke-linecap="butt" d="m85.606926 62.0l-6.606926 -18.15239l-6.606926 18.15239z" fill-rule="evenodd"/><path fill="#000000" fill-opacity="0.0" d="m-7.0 375.0l160.0 0l0 48.472443l-160.0 0z" fill-rule="evenodd"/><path fill="#000000" d="m15.765625 391.82126l-5.484375 0l0 15.21875l-2.234375 0l0 -15.21875l-5.46875 0l0 -1.84375l13.1875 0l0 1.84375zm4.3671875 4.078125q1.4375 -1.78125 3.75 -1.78125q4.015625 0 4.046875 4.546875l0 8.375l-2.15625 0l0 -8.390625q-0.015625 -1.375 -0.640625 -2.03125q-0.609375 -0.65625 -1.90625 -0.65625q-1.0625 0 -1.859375 0.5625q-0.796875 0.5625 -1.234375 1.484375l0 9.03125l-2.171875 0l0 -18.0l2.171875 0l0 6.859375zm13.40625 11.140625l-2.171875 0l0 -12.6875l2.171875 0l0 12.6875zm-2.34375 -16.046875q0 -0.53125 0.3125 -0.890625q0.328125 -0.359375 0.953125 -0.359375q0.640625 0 0.96875 0.359375q0.328125 0.359375 0.328125 0.890625q0 0.53125 -0.328125 0.890625q-0.328125 0.34375 -0.96875 0.34375q-0.625 0 -0.953125 -0.34375q-0.3125 -0.359375 -0.3125 -0.890625zm13.199219 12.6875q0 -0.890625 -0.671875 -1.375q-0.65625 -0.484375 -2.3125 -0.828125q-1.640625 -0.359375 -2.609375 -0.84375q-0.96875 -0.5 -1.4375 -1.171875q-0.453125 -0.6875 -0.453125 -1.625q0 -1.5625 1.3125 -2.640625q1.328125 -1.078125 3.375 -1.078125q2.15625 0 3.5 1.125q1.34375 1.109375 1.34375 2.84375l-2.1875 0q0 -0.890625 -0.75 -1.53125q-0.75 -0.65625 -1.90625 -0.65625q-1.1875 0 -1.859375 0.515625q-0.65625 0.515625 -0.65625 1.359375q0 0.78125 0.609375 1.1875q0.625 0.390625 2.25 0.75q1.625 0.359375 2.625 0.875q1.015625 0.5 1.5 1.21875q0.484375 0.703125 0.484375 1.71875q0 1.703125 -1.359375 2.734375q-1.359375 1.015625 -3.515625 1.015625q-1.53125 0 -2.703125 -0.53125q-1.171875 -0.546875 -1.84375 -1.515625q-0.65625 -0.96875 -0.65625 -2.09375l2.171875 0q0.0625 1.09375 0.875 1.734375q0.8125 0.640625 2.15625 0.640625q1.21875 0 1.96875 -0.5q0.75 -0.5 0.75 -1.328125zm22.160156 0.375l2.4375 -9.703125l2.15625 0l-3.6875 12.6875l-1.75 0l-3.09375 -9.609375l-3.0 9.609375l-1.75 0l-3.6875 -12.6875l2.15625 0l2.5 9.5l2.953125 -9.5l1.75 0l3.015625 9.703125zm14.628906 2.984375q-0.1875 -0.375 -0.296875 -1.34375q-1.515625 1.578125 -3.609375 1.578125q-1.875 0 -3.078125 -1.0625q-1.203125 -1.0625 -1.203125 -2.6875q0 -1.984375 1.5 -3.078125q1.515625 -1.09375 4.234375 -1.09375l2.109375 0l0 -1.0q0 -1.140625 -0.6875 -1.8125q-0.671875 -0.671875 -1.984375 -0.671875q-1.171875 0 -1.953125 0.59375q-0.78125 0.578125 -0.78125 1.40625l-2.1875 0q0 -0.9375 0.671875 -1.828125q0.6875 -0.890625 1.828125 -1.40625q1.15625 -0.515625 2.546875 -0.515625q2.1875 0 3.421875 1.109375q1.25 1.09375 1.296875 3.015625l0 5.828125q0 1.75 0.453125 2.78125l0 0.1875l-2.28125 0zm-3.59375 -1.65625q1.015625 0 1.921875 -0.515625q0.921875 -0.53125 1.328125 -1.375l0 -2.609375l-1.6875 0q-3.984375 0 -3.984375 2.328125q0 1.03125 0.671875 1.609375q0.6875 0.5625 1.75 0.5625zm12.800781 -1.515625l2.953125 -9.515625l2.3125 0l-5.09375 14.640625q-1.1875 3.171875 -3.765625 3.171875l-0.40625 -0.03125l-0.8125 -0.15625l0 -1.765625l0.59375 0.046875q1.09375 0 1.703125 -0.453125q0.625 -0.4375 1.015625 -1.609375l0.484375 -1.296875l-4.515625 -12.546875l2.359375 0l3.171875 9.515625zm20.96875 1.921875q-1.265625 1.484375 -3.71875 1.484375q-2.015625 0 -3.078125 -1.171875q-1.0625 -1.1875 -1.078125 -3.5l0 -8.25l2.171875 0l0 8.203125q0 2.875 2.34375 2.875q2.484375 0 3.296875 -1.84375l0 -9.234375l2.171875 0l0 12.6875l-2.0625 0l-0.046875 -1.25zm16.121094 -4.953125q0 2.890625 -1.328125 4.671875q-1.328125 1.765625 -3.59375 1.765625q-2.296875 0 -3.625 -1.46875l0 6.109375l-2.171875 0l0 -17.5625l1.984375 0l0.109375 1.40625q1.3125 -1.640625 3.671875 -1.640625q2.28125 0 3.609375 1.734375q1.34375 1.71875 1.34375 4.78125l0 0.203125zm-2.171875 -0.25q0 -2.140625 -0.921875 -3.375q-0.90625 -1.25 -2.5 -1.25q-1.96875 0 -2.953125 1.75l0 6.0625q0.96875 1.734375 2.96875 1.734375q1.5625 0 2.484375 -1.234375q0.921875 -1.25 0.921875 -3.6875z" fill-rule="nonzero"/><path fill="#000000" fill-opacity="0.0" d="m576.0 216.0l-188.75592 0" fill-rule="evenodd"/><path stroke="#000000" stroke-width="4.0" stroke-linejoin="round" stroke-linecap="butt" d="m576.0 216.0l-164.75592 0" fill-rule="evenodd"/><path fill="#000000" stroke="#000000" stroke-width="4.0" stroke-linecap="butt" d="m411.24408 209.39307l-18.152374 6.6069336l18.152374 6.6069336z" fill-rule="evenodd"/><path fill="#000000" fill-opacity="0.0" d="m576.0 191.76378l130.01575 0l0 48.472443l-130.01575 0z" fill-rule="evenodd"/><path fill="#000000" d="m589.25 221.96004l8.078125 0l0 1.84375l-10.34375 0l0 -17.0625l2.265625 0l0 15.21875zm15.5703125 2.078125q-2.578125 0 -4.203125 -1.6875q-1.609375 -1.703125 -1.609375 -4.53125l0 -0.40625q0 -1.890625 0.71875 -3.359375q0.71875 -1.484375 2.015625 -2.328125q1.296875 -0.84375 2.8125 -0.84375q2.46875 0 3.828125 1.640625q1.375 1.625 1.375 4.65625l0 0.90625l-8.578125 0q0.046875 1.875 1.09375 3.03125q1.046875 1.15625 2.65625 1.15625q1.15625 0 1.953125 -0.46875q0.796875 -0.46875 1.390625 -1.25l1.328125 1.03125q-1.59375 2.453125 -4.78125 2.453125zm-0.265625 -11.375q-1.3125 0 -2.203125 0.96875q-0.890625 0.953125 -1.109375 2.671875l6.359375 0l0 -0.171875q-0.09375 -1.640625 -0.890625 -2.546875q-0.796875 -0.921875 -2.15625 -0.921875zm9.761719 -1.546875l0.078125 1.59375q1.453125 -1.828125 3.796875 -1.828125q4.015625 0 4.046875 4.546875l0 8.375l-2.15625 0l0 -8.390625q-0.015625 -1.375 -0.640625 -2.03125q-0.609375 -0.65625 -1.90625 -0.65625q-1.0625 0 -1.859375 0.5625q-0.796875 0.5625 -1.234375 1.484375l0 9.03125l-2.171875 0l0 -12.6875l2.046875 0zm18.585938 9.328125q0 -0.890625 -0.671875 -1.375q-0.65625 -0.484375 -2.3125 -0.828125q-1.640625 -0.359375 -2.609375 -0.84375q-0.96875 -0.5 -1.4375 -1.171875q-0.453125 -0.6875 -0.453125 -1.625q0 -1.5625 1.3125 -2.640625q1.328125 -1.078125 3.375 -1.078125q2.15625 0 3.5 1.125q1.34375 1.109375 1.34375 2.84375l-2.1875 0q0 -0.890625 -0.75 -1.53125q-0.75 -0.65625 -1.90625 -0.65625q-1.1875 0 -1.859375 0.515625q-0.65625 0.515625 -0.65625 1.359375q0 0.78125 0.609375 1.1875q0.625 0.390625 2.25 0.75q1.625 0.359375 2.625 0.875q1.015625 0.5 1.5 1.21875q0.484375 0.703125 0.484375 1.71875q0 1.703125 -1.359375 2.734375q-1.359375 1.015625 -3.515625 1.015625q-1.53125 0 -2.703125 -0.53125q-1.171875 -0.546875 -1.84375 -1.515625q-0.65625 -0.96875 -0.65625 -2.09375l2.171875 0q0.0625 1.09375 0.875 1.734375q0.8125 0.640625 2.15625 0.640625q1.21875 0 1.96875 -0.5q0.75 -0.5 0.75 -1.328125z" fill-rule="nonzero"/><path fill="#000000" fill-opacity="0.0" d="m232.69554 416.01575l202.39369 0l0 48.472443l-202.39369 0z" fill-rule="evenodd"/><path fill="#000000" d="m264.26544 440.5245l-7.15625 0l0 7.53125l-2.25 0l0 -17.0625l10.5625 0l0 1.84375l-8.3125 0l0 5.84375l7.15625 0l0 1.84375zm9.3359375 -3.203125q-0.484375 -0.078125 -1.0625 -0.078125q-2.125 0 -2.890625 1.8125l0 9.0l-2.171875 0l0 -12.6875l2.109375 0l0.03125 1.46875q1.078125 -1.703125 3.03125 -1.703125q0.625 0 0.953125 0.171875l0 2.015625zm1.1835938 4.28125q0 -1.875 0.734375 -3.359375q0.734375 -1.484375 2.03125 -2.296875q1.3125 -0.8125 3.0 -0.8125q2.578125 0 4.171875 1.796875q1.609375 1.796875 1.609375 4.765625l0 0.15625q0 1.859375 -0.71875 3.328125q-0.703125 1.46875 -2.015625 2.296875q-1.3125 0.8125 -3.03125 0.8125q-2.578125 0 -4.1875 -1.796875q-1.59375 -1.796875 -1.59375 -4.75l0 -0.140625zm2.1875 0.25q0 2.109375 0.96875 3.390625q0.984375 1.28125 2.625 1.28125q1.65625 0 2.625 -1.296875q0.96875 -1.296875 0.96875 -3.625q0 -2.09375 -0.984375 -3.390625q-0.984375 -1.296875 -2.625 -1.296875q-1.609375 0 -2.59375 1.28125q-0.984375 1.28125 -0.984375 3.65625zm14.125 -6.484375l0.078125 1.59375q1.453125 -1.828125 3.796875 -1.828125q4.015625 0 4.046875 4.546875l0 8.375l-2.15625 0l0 -8.390625q-0.015625 -1.375 -0.640625 -2.03125q-0.609375 -0.65625 -1.90625 -0.65625q-1.0625 0 -1.859375 0.5625q-0.796875 0.5625 -1.234375 1.484375l0 9.03125l-2.171875 0l0 -12.6875l2.046875 0zm14.1328125 -3.0625l0 3.0625l2.375 0l0 1.6875l-2.375 0l0 7.859375q0 0.765625 0.3125 1.140625q0.328125 0.375 1.09375 0.375q0.375 0 1.03125 -0.140625l0 1.765625q-0.859375 0.234375 -1.671875 0.234375q-1.453125 0 -2.1875 -0.875q-0.734375 -0.890625 -0.734375 -2.5l0 -7.859375l-2.3125 0l0 -1.6875l2.3125 0l0 -3.0625l2.15625 0zm10.265625 9.296875q0 -1.875 0.734375 -3.359375q0.734375 -1.484375 2.03125 -2.296875q1.3125 -0.8125 3.0 -0.8125q2.578125 0 4.171875 1.796875q1.609375 1.796875 1.609375 4.765625l0 0.15625q0 1.859375 -0.71875 3.328125q-0.703125 1.46875 -2.015625 2.296875q-1.3125 0.8125 -3.03125 0.8125q-2.578125 0 -4.1875 -1.796875q-1.59375 -1.796875 -1.59375 -4.75l0 -0.140625zm2.1875 0.25q0 2.109375 0.96875 3.390625q0.984375 1.28125 2.625 1.28125q1.65625 0 2.625 -1.296875q0.96875 -1.296875 0.96875 -3.625q0 -2.09375 -0.984375 -3.390625q-0.984375 -1.296875 -2.625 -1.296875q-1.609375 0 -2.59375 1.28125q-0.984375 1.28125 -0.984375 3.65625zm13.140625 6.203125l0 -11.0l-2.0 0l0 -1.6875l2.0 0l0 -1.296875q0 -2.03125 1.09375 -3.140625q1.09375 -1.125 3.078125 -1.125q0.75 0 1.5 0.203125l-0.125 1.75q-0.546875 -0.09375 -1.171875 -0.09375q-1.046875 0 -1.625 0.609375q-0.578125 0.609375 -0.578125 1.765625l0 1.328125l2.703125 0l0 1.6875l-2.703125 0l0 11.0l-2.171875 0zm20.601562 -3.359375q0 -0.890625 -0.671875 -1.375q-0.65625 -0.484375 -2.3125 -0.828125q-1.640625 -0.359375 -2.609375 -0.84375q-0.96875 -0.5 -1.4375 -1.171875q-0.453125 -0.6875 -0.453125 -1.625q0 -1.5625 1.3125 -2.640625q1.328125 -1.078125 3.375 -1.078125q2.15625 0 3.5 1.125q1.34375 1.109375 1.34375 2.84375l-2.1875 0q0 -0.890625 -0.75 -1.53125q-0.75 -0.65625 -1.90625 -0.65625q-1.1875 0 -1.859375 0.515625q-0.65625 0.515625 -0.65625 1.359375q0 0.78125 0.609375 1.1875q0.625 0.390625 2.25 0.75q1.625 0.359375 2.625 0.875q1.015625 0.5 1.5 1.21875q0.484375 0.703125 0.484375 1.71875q0 1.703125 -1.359375 2.734375q-1.359375 1.015625 -3.515625 1.015625q-1.53125 0 -2.703125 -0.53125q-1.171875 -0.546875 -1.84375 -1.515625q-0.65625 -0.96875 -0.65625 -2.09375l2.171875 0q0.0625 1.09375 0.875 1.734375q0.8125 0.640625 2.15625 0.640625q1.21875 0 1.96875 -0.5q0.75 -0.5 0.75 -1.328125zm10.25 3.59375q-2.578125 0 -4.203125 -1.6875q-1.609375 -1.703125 -1.609375 -4.53125l0 -0.40625q0 -1.890625 0.71875 -3.359375q0.71875 -1.484375 2.015625 -2.328125q1.296875 -0.84375 2.8125 -0.84375q2.46875 0 3.828125 1.640625q1.375 1.625 1.375 4.65625l0 0.90625l-8.578125 0q0.046875 1.875 1.09375 3.03125q1.046875 1.15625 2.65625 1.15625q1.15625 0 1.953125 -0.46875q0.796875 -0.46875 1.390625 -1.25l1.328125 1.03125q-1.59375 2.453125 -4.78125 2.453125zm-0.265625 -11.375q-1.3125 0 -2.203125 0.96875q-0.890625 0.953125 -1.109375 2.671875l6.359375 0l0 -0.171875q-0.09375 -1.640625 -0.890625 -2.546875q-0.796875 -0.921875 -2.15625 -0.921875zm9.761719 -1.546875l0.078125 1.59375q1.453125 -1.828125 3.796875 -1.828125q4.015625 0 4.046875 4.546875l0 8.375l-2.15625 0l0 -8.390625q-0.015625 -1.375 -0.640625 -2.03125q-0.609375 -0.65625 -1.90625 -0.65625q-1.0625 0 -1.859375 0.5625q-0.796875 0.5625 -1.234375 1.484375l0 9.03125l-2.171875 0l0 -12.6875l2.046875 0zm18.585938 9.328125q0 -0.890625 -0.671875 -1.375q-0.65625 -0.484375 -2.3125 -0.828125q-1.640625 -0.359375 -2.609375 -0.84375q-0.96875 -0.5 -1.4375 -1.171875q-0.453125 -0.6875 -0.453125 -1.625q0 -1.5625 1.3125 -2.640625q1.328125 -1.078125 3.375 -1.078125q2.15625 0 3.5 1.125q1.34375 1.109375 1.34375 2.84375l-2.1875 0q0 -0.890625 -0.75 -1.53125q-0.75 -0.65625 -1.90625 -0.65625q-1.1875 0 -1.859375 0.515625q-0.65625 0.515625 -0.65625 1.359375q0 0.78125 0.609375 1.1875q0.625 0.390625 2.25 0.75q1.625 0.359375 2.625 0.875q1.015625 0.5 1.5 1.21875q0.484375 0.703125 0.484375 1.71875q0 1.703125 -1.359375 2.734375q-1.359375 1.015625 -3.515625 1.015625q-1.53125 0 -2.703125 -0.53125q-1.171875 -0.546875 -1.84375 -1.515625q-0.65625 -0.96875 -0.65625 -2.09375l2.171875 0q0.0625 1.09375 0.875 1.734375q0.8125 0.640625 2.15625 0.640625q1.21875 0 1.96875 -0.5q0.75 -0.5 0.75 -1.328125zm4.40625 -3.09375q0 -1.875 0.734375 -3.359375q0.734375 -1.484375 2.03125 -2.296875q1.3125 -0.8125 3.0 -0.8125q2.578125 0 4.171875 1.796875q1.609375 1.796875 1.609375 4.765625l0 0.15625q0 1.859375 -0.71875 3.328125q-0.703125 1.46875 -2.015625 2.296875q-1.3125 0.8125 -3.03125 0.8125q-2.578125 0 -4.1875 -1.796875q-1.59375 -1.796875 -1.59375 -4.75l0 -0.140625zm2.1875 0.25q0 2.109375 0.96875 3.390625q0.984375 1.28125 2.625 1.28125q1.65625 0 2.625 -1.296875q0.96875 -1.296875 0.96875 -3.625q0 -2.09375 -0.984375 -3.390625q-0.984375 -1.296875 -2.625 -1.296875q-1.609375 0 -2.59375 1.28125q-0.984375 1.28125 -0.984375 3.65625zm18.203125 -4.53125q-0.484375 -0.078125 -1.0625 -0.078125q-2.125 0 -2.890625 1.8125l0 9.0l-2.171875 0l0 -12.6875l2.109375 0l0.03125 1.46875q1.078125 -1.703125 3.03125 -1.703125q0.625 0 0.953125 0.171875l0 2.015625z" fill-rule="nonzero"/><path fill="#000000" fill-opacity="0.0" d="m456.88715 152.53806l19.874023 0l0 19.874023l-19.874023 0z" fill-rule="evenodd"/><path stroke="#000000" stroke-width="3.0" stroke-linejoin="round" stroke-linecap="butt" d="m456.88715 152.53806l19.874023 0l0 19.874023l-19.874023 0z" fill-rule="evenodd"/><path fill="#000000" fill-opacity="0.0" d="m575.97375 162.47507l-99.212585 0" fill-rule="evenodd"/><path stroke="#000000" stroke-width="4.0" stroke-linejoin="round" stroke-linecap="butt" d="m575.97375 162.47507l-75.212585 0" fill-rule="evenodd"/><path fill="#000000" stroke="#000000" stroke-width="4.0" stroke-linecap="butt" d="m500.76114 155.86813l-18.152374 6.6069336l18.152374 6.6069336z" fill-rule="evenodd"/><path fill="#000000" fill-opacity="0.0" d="m575.70416 138.23885l130.01575 0l0 48.472443l-130.01575 0z" fill-rule="evenodd"/><path fill="#000000" d="m588.95416 168.43509l8.078125 0l0 1.84375l-10.34375 0l0 -17.0625l2.265625 0l0 15.21875zm20.289062 -6.046875l-7.390625 0l0 6.046875l8.59375 0l0 1.84375l-10.84375 0l0 -17.0625l10.71875 0l0 1.84375l-8.46875 0l0 5.484375l7.390625 0l0 1.84375zm4.0 7.890625l0 -17.0625l4.8125 0q2.234375 0 3.9375 0.984375q1.71875 0.984375 2.640625 2.796875q0.9375 1.8125 0.953125 4.171875l0 1.09375q0 2.40625 -0.9375 4.234375q-0.9375 1.8125 -2.671875 2.78125q-1.71875 0.96875 -4.015625 1.0l-4.71875 0zm2.25 -15.21875l0 13.375l2.359375 0q2.609375 0 4.046875 -1.609375q1.453125 -1.625 1.453125 -4.609375l0 -1.0q0 -2.90625 -1.375 -4.515625q-1.359375 -1.609375 -3.859375 -1.640625l-2.625 0z" fill-rule="nonzero"/><path fill="#000000" fill-opacity="0.0" d="m376.37534 140.86089l30.64566 0l0 35.559067l-30.64566 0z" fill-rule="evenodd"/><path fill="#000000" d="m391.0316 160.20776l0.75 2.453125l1.1875 0l-3.0 -9.46875l-1.015625 0l-3.046875 9.46875l1.203125 0l0.765625 -2.453125l3.15625 0zm-2.84375 -1.046875l1.28125 -4.109375l1.25 4.109375l-2.53125 0z" fill-rule="nonzero"/></g></svg>