<svg version="1.1" viewBox="0.0 0.0 834.0 409.0" fill="none" stroke="none" stroke-linecap="square" stroke-miterlimit="10" xmlns:xlink="http://www.w3.org/1999/xlink" xmlns="http://www.w3.org/2000/svg"><clipPath id="p.0"><path d="m0 0l834.0 0l0 409.0l-834.0 0l0 -409.0z" clip-rule="nonzero"/></clipPath><g clip-path="url(#p.0)"><path fill="#000000" fill-opacity="0.0" d="m0 0l834.0 0l0 409.0l-834.0 0z" fill-rule="evenodd"/><path fill="#ffffff" d="m-1.2204725 -1.2204725l833.98425 0l0 409.00787l-833.98425 0z" fill-rule="evenodd"/><path fill="#000000" fill-opacity="0.0" d="m67.20473 187.81233l699.5906 0l0 35.46457l-699.5906 0z" fill-rule="evenodd"/><path stroke="#000000" stroke-width="3.0" stroke-linejoin="round" stroke-linecap="butt" d="m67.20473 187.81233l699.5906 0l0 35.46457l-699.5906 0z" fill-rule="evenodd"/><path fill="#000000" fill-opacity="0.0" d="m323.50394 223.2769l186.99213 0l0 95.65355l-186.99213 0z" fill-rule="evenodd"/><path stroke="#000000" stroke-width="3.0" stroke-linejoin="round" stroke-linecap="butt" d="m323.50394 223.2769l186.99213 0l0 95.65355l-186.99213 0z" fill-rule="evenodd"/><path fill="#000000" fill-opacity="0.0" d="m350.19684 318.93045l133.60632 0l0 46.33072l-133.60632 0z" fill-rule="evenodd"/><path stroke="#000000" stroke-width="3.0" stroke-linejoin="round" stroke-linecap="butt" d="m350.19684 318.93045l133.60632 0l0 46.33072l-133.60632 0z" fill-rule="evenodd"/><path fill="#000000" fill-opacity="0.0" d="m346.6063 123.3399l140.78741 0l0 64.472435l-140.78741 0z" fill-rule="evenodd"/><path stroke="#000000" stroke-width="3.0" stroke-linejoin="round" stroke-linecap="butt" d="m346.6063 123.3399l140.78741 0l0 64.472435l-140.78741 0z" fill-rule="evenodd"/><path fill="#000000" d="m370.0433 155.57611l0 0c0 -5.63591 4.568817 -10.204727 10.204712 -10.204727l0 0c2.706482 0 5.3020935 1.0751495 7.215851 2.9889069c1.9137573 1.9137573 2.9888916 4.509369 2.9888916 7.2158203l0 0c0 5.6359253 -4.568817 10.204727 -10.204742 10.204727l0 0c-5.635895 0 -10.204712 -4.568802 -10.204712 -10.204727z" fill-rule="evenodd"/><path stroke="#000000" stroke-width="3.0" stroke-linejoin="round" stroke-linecap="butt" d="m370.0433 155.57611l0 0c0 -5.63591 4.568817 -10.204727 10.204712 -10.204727l0 0c2.706482 0 5.3020935 1.0751495 7.215851 2.9889069c1.9137573 1.9137573 2.9888916 4.509369 2.9888916 7.2158203l0 0c0 5.6359253 -4.568817 10.204727 -10.204742 10.204727l0 0c-5.635895 0 -10.204712 -4.568802 -10.204712 -10.204727z" fill-rule="evenodd"/><path fill="#000000" d="m394.54462 155.04593l0 0c0 -5.63591 4.568817 -10.204727 10.204712 -10.204727l0 0c2.706482 0 5.3020935 1.0751495 7.215851 2.9889069c1.9137573 1.9137573 2.9888916 4.509369 2.9888916 7.2158203l0 0c0 5.63591 -4.568817 10.204727 -10.204742 10.204727l0 0c-5.635895 0 -10.204712 -4.568817 -10.204712 -10.204727z" fill-rule="evenodd"/><path stroke="#000000" stroke-width="3.0" stroke-linejoin="round" stroke-linecap="butt" d="m394.54462 155.04593l0 0c0 -5.63591 4.568817 -10.204727 10.204712 -10.204727l0 0c2.706482 0 5.3020935 1.0751495 7.215851 2.9889069c1.9137573 1.9137573 2.9888916 4.509369 2.9888916 7.2158203l0 0c0 5.63591 -4.568817 10.204727 -10.204742 10.204727l0 0c-5.635895 0 -10.204712 -4.568817 -10.204712 -10.204727z" fill-rule="evenodd"/><path fill="#000000" d="m419.04593 156.1063l0 0c0 -5.63591 4.568817 -10.204712 10.204742 -10.204712l0 0c2.7064514 0 5.302063 1.0751343 7.2158203 2.9888916c1.9137573 1.9137573 2.9888916 4.509369 2.9888916 7.2158203l0 0c0 5.6359253 -4.568817 10.204727 -10.204712 10.204727l0 0c-5.6359253 0 -10.204742 -4.568802 -10.204742 -10.204727z" fill-rule="evenodd"/><path stroke="#000000" stroke-width="3.0" stroke-linejoin="round" stroke-linecap="butt" d="m419.04593 156.1063l0 0c0 -5.63591 4.568817 -10.204712 10.204742 -10.204712l0 0c2.7064514 0 5.302063 1.0751343 7.2158203 2.9888916c1.9137573 1.9137573 2.9888916 4.509369 2.9888916 7.2158203l0 0c0 5.6359253 -4.568817 10.204727 -10.204712 10.204727l0 0c-5.6359253 0 -10.204742 -4.568802 -10.204742 -10.204727z" fill-rule="evenodd"/><path fill="#000000" d="m443.54724 155.57611l0 0c0 -5.63591 4.568817 -10.204727 10.204742 -10.204727l0 0c2.7064514 0 5.302063 1.0751495 7.2158203 2.9889069c1.9137573 1.9137573 2.9888916 4.509369 2.9888916 7.2158203l0 0c0 5.6359253 -4.568817 10.204727 -10.204712 10.204727l0 0c-5.6359253 0 -10.204742 -4.568802 -10.204742 -10.204727z" fill-rule="evenodd"/><path stroke="#000000" stroke-width="3.0" stroke-linejoin="round" stroke-linecap="butt" d="m443.54724 155.57611l0 0c0 -5.63591 4.568817 -10.204727 10.204742 -10.204727l0 0c2.7064514 0 5.302063 1.0751495 7.2158203 2.9889069c1.9137573 1.9137573 2.9888916 4.509369 2.9888916 7.2158203l0 0c0 5.6359253 -4.568817 10.204727 -10.204712 10.204727l0 0c-5.6359253 0 -10.204742 -4.568802 -10.204742 -10.204727z" fill-rule="evenodd"/><path fill="#000000" fill-opacity="0.0" d="m255.50656 44.799213l74.99213 0l0 48.47244l-74.99213 0z" fill-rule="evenodd"/><path fill="#000000" d="m284.47723 74.604836l-0.03125 -6.265625l-5.53125 0l0 1.828125l3.46875 0l-0.03125 3.828125q-0.265625 0.390625 -0.671875 0.640625q-0.390625 0.234375 -0.84375 0.375q-0.453125 0.140625 -0.953125 0.1875q-0.484375 0.046875 -0.921875 0.03125q-0.78125 -0.015625 -1.390625 -0.265625q-0.609375 -0.265625 -1.0625 -0.71875q-0.46875 -0.4375 -0.796875 -1.015625q-0.328125 -0.59375 -0.53125 -1.25q-0.21875 -0.65625 -0.328125 -1.34375q-0.09375 -0.6875 -0.09375 -1.328125l0 -2.015625q0 -0.625 0.078125 -1.296875q0.078125 -0.6875 0.265625 -1.34375q0.1875 -0.6562462 0.484375 -1.2499962q0.296875 -0.59375 0.734375 -1.03125q0.453125 -0.453125 1.046875 -0.71875q0.59375 -0.265625 1.375 -0.265625q0.796875 0 1.40625 0.265625q0.609375 0.25 1.0625 0.6875q0.4375 0.453125 0.703125 1.078125q0.265625 0.6249962 0.390625 1.3593712l2.15625 0q-0.109375 -1.1874962 -0.578125 -2.1562462q-0.453125 -0.96875 -1.203125 -1.65625q-0.75 -0.6875 -1.765625 -1.046875q-1.0 -0.375 -2.1875 -0.375q-1.078125 0 -1.953125 0.3125q-0.859375 0.3125 -1.546875 0.859375q-0.6875 0.546875 -1.1875 1.296875q-0.484375 0.734375 -0.8125 1.609375q-0.328125 0.8593712 -0.484375 1.8124962q-0.15625 0.9375 -0.171875 1.890625l0 1.984375q0.015625 0.953125 0.1875 1.90625q0.1875 0.9375 0.546875 1.796875q0.359375 0.859375 0.875 1.609375q0.53125 0.734375 1.234375 1.265625q0.703125 0.546875 1.59375 0.859375q0.890625 0.3125 1.9375 0.328125q1.046875 0.015625 1.984375 -0.234375q0.953125 -0.234375 1.78125 -0.734375q0.484375 -0.28125 0.921875 -0.65625q0.453125 -0.375 0.84375 -0.84375zm14.058594 2.234375l0 -17.062496l-2.203125 0l-0.03125 12.718746l-6.625 -12.718746l-2.203125 0l0 17.062496l2.203125 0l0.03125 -12.75l6.625 12.75l2.203125 0zm3.4804688 0l3.953125 0q1.234375 -0.015625 2.296875 -0.296875q1.0625 -0.28125 1.90625 -0.8125q0.796875 -0.5 1.4375 -1.203125q0.640625 -0.71875 1.0625 -1.609375q0.40625 -0.84375 0.625 -1.84375q0.21875 -1.015625 0.21875 -2.140625l0 -1.25q-0.015625 -1.171875 -0.25 -2.203125q-0.21875 -1.03125 -0.65625 -1.8906212q-0.46875 -1.03125 -1.28125 -1.796875q-0.796875 -0.78125 -1.84375 -1.265625q-0.75 -0.359375 -1.640625 -0.546875q-0.875 -0.1875 -1.875 -0.203125l-3.953125 0l0 17.062496zm2.203125 -15.281246l1.75 0q0.8125 0.015625 1.484375 0.1875q0.6875 0.15625 1.234375 0.46875q0.78125 0.40625 1.3125 1.078125q0.53125 0.65625 0.84375 1.4687462q0.25 0.640625 0.375 1.375q0.125 0.734375 0.125 1.53125l0 1.265625q0 0.796875 -0.125 1.515625q-0.109375 0.71875 -0.34375 1.34375q-0.28125 0.75 -0.75 1.375q-0.453125 0.609375 -1.078125 1.03125q-0.609375 0.40625 -1.375 0.640625q-0.765625 0.21875 -1.703125 0.234375l-1.75 0l0 -13.515621z" fill-rule="nonzero"/><path fill="#000000" fill-opacity="0.0" d="m336.4672 43.738846l80.031494 0l0 48.472443l-80.031494 0z" fill-rule="evenodd"/><path fill="#000000" d="m352.25638 66.20072l0 1.765625l1.546875 0q0.796875 0 1.46875 0.1875q0.6875 0.1875 1.15625 0.5625q0.46875 0.390625 0.734375 0.96875q0.265625 0.578125 0.265625 1.375q0 0.8125 -0.234375 1.40625q-0.21875 0.59375 -0.640625 0.984375q-0.421875 0.40625 -1.03125 0.609375q-0.59375 0.1875 -1.328125 0.1875q-0.734375 0 -1.34375 -0.203125q-0.59375 -0.21875 -1.015625 -0.609375q-0.421875 -0.390625 -0.65625 -0.9375q-0.234375 -0.546875 -0.234375 -1.21875l-2.15625 0q0 1.125 0.421875 2.0q0.421875 0.875 1.15625 1.484375q0.71875 0.609375 1.703125 0.9375q1.0 0.3125 2.125 0.3125q1.15625 0 2.140625 -0.328125q0.984375 -0.34375 1.71875 -0.984375q0.71875 -0.640625 1.125 -1.5625q0.421875 -0.921875 0.421875 -2.125q0 -0.578125 -0.140625 -1.171875q-0.125 -0.609375 -0.453125 -1.140625q-0.34375 -0.546875 -0.90625 -0.96875q-0.546875 -0.4375 -1.390625 -0.703125q0.703125 -0.296875 1.1875 -0.734375q0.5 -0.4375 0.828125 -0.953125q0.3125 -0.484375 0.453125 -1.015625q0.15625 -0.53125 0.15625 -1.015625q0 -1.1875 -0.375 -2.078125q-0.375 -0.90625 -1.046875 -1.515625q-0.6875 -0.609375 -1.640625 -0.921875q-0.9375 -0.3125 -2.09375 -0.3125q-1.171875 0 -2.140625 0.375q-0.96875 0.359375 -1.65625 1.0q-0.703125 0.640625 -1.078125 1.5q-0.375 0.859375 -0.375 1.828125l2.171875 0q0 -0.65625 0.21875 -1.1875q0.234375 -0.546875 0.640625 -0.9375q0.390625 -0.390625 0.953125 -0.59375q0.578125 -0.203125 1.265625 -0.203125q0.71875 0 1.265625 0.1875q0.5625 0.171875 0.9375 0.53125q0.390625 0.375 0.59375 0.953125q0.203125 0.5625 0.203125 1.328125q0 0.640625 -0.234375 1.1875q-0.21875 0.53125 -0.640625 0.921875q-0.4375 0.390625 -1.0625 0.609375q-0.625 0.21875 -1.4375 0.21875l-1.546875 0zm15.636719 8.171875q0 0.671875 0.421875 1.15625q0.4375 0.46875 1.28125 0.46875q0.828125 0 1.265625 -0.46875q0.453125 -0.46875 0.453125 -1.15625q0 -0.703125 -0.4375 -1.1875q-0.4375 -0.484375 -1.28125 -0.484375q-0.859375 0 -1.28125 0.5q-0.421875 0.484375 -0.421875 1.171875zm13.167969 -8.171875l0 1.765625l1.546875 0q0.796875 0 1.46875 0.1875q0.6875 0.1875 1.15625 0.5625q0.46875 0.390625 0.734375 0.96875q0.265625 0.578125 0.265625 1.375q0 0.8125 -0.234375 1.40625q-0.21875 0.59375 -0.640625 0.984375q-0.421875 0.40625 -1.03125 0.609375q-0.59375 0.1875 -1.328125 0.1875q-0.734375 0 -1.34375 -0.203125q-0.59375 -0.21875 -1.015625 -0.609375q-0.421875 -0.390625 -0.65625 -0.9375q-0.234375 -0.546875 -0.234375 -1.21875l-2.15625 0q0 1.125 0.421875 2.0q0.421875 0.875 1.15625 1.484375q0.71875 0.609375 1.703125 0.9375q1.0 0.3125 2.125 0.3125q1.15625 0 2.140625 -0.328125q0.984375 -0.34375 1.71875 -0.984375q0.71875 -0.640625 1.125 -1.5625q0.421875 -0.921875 0.421875 -2.125q0 -0.578125 -0.140625 -1.171875q-0.125 -0.609375 -0.453125 -1.140625q-0.34375 -0.546875 -0.90625 -0.96875q-0.546875 -0.4375 -1.390625 -0.703125q0.703125 -0.296875 1.1875 -0.734375q0.5 -0.4375 0.828125 -0.953125q0.3125 -0.484375 0.453125 -1.015625q0.15625 -0.53125 0.15625 -1.015625q0 -1.1875 -0.375 -2.078125q-0.375 -0.90625 -1.046875 -1.515625q-0.6875 -0.609375 -1.640625 -0.921875q-0.9375 -0.3125 -2.09375 -0.3125q-1.171875 0 -2.140625 0.375q-0.96875 0.359375 -1.65625 1.0q-0.703125 0.640625 -1.078125 1.5q-0.375 0.859375 -0.375 1.828125l2.171875 0q0 -0.65625 0.21875 -1.1875q0.234375 -0.546875 0.640625 -0.9375q0.390625 -0.390625 0.953125 -0.59375q0.578125 -0.203125 1.265625 -0.203125q0.71875 0 1.265625 0.1875q0.5625 0.171875 0.9375 0.53125q0.390625 0.375 0.59375 0.953125q0.203125 0.5625 0.203125 1.328125q0 0.640625 -0.234375 1.1875q-0.21875 0.53125 -0.640625 0.921875q-0.4375 0.390625 -1.0625 0.609375q-0.625 0.21875 -1.4375 0.21875l-1.546875 0zm16.042969 9.578125l1.890625 0l5.375 -17.0625l-2.296875 0l-3.78125 12.71875l-0.25 0.84375l-0.25 -0.828125l-3.75 -12.734375l-2.328125 0l5.390625 17.0625z" fill-rule="nonzero"/><path fill="#000000" fill-opacity="0.0" d="m416.4987 44.799213l74.99213 0l0 48.47244l-74.99213 0z" fill-rule="evenodd"/><path fill="#000000" d="m443.36 72.52671q0 0.703125 -0.3125 1.21875q-0.296875 0.5 -0.78125 0.828125q-0.46875 0.34375 -1.09375 0.5q-0.609375 0.15625 -1.25 0.15625q-0.796875 0 -1.46875 -0.21875q-0.671875 -0.21875 -1.1875 -0.640625q-0.515625 -0.421875 -0.84375 -1.03125q-0.328125 -0.625 -0.4375 -1.421875l-2.203125 0q0.03125 1.09375 0.484375 2.0q0.453125 0.890625 1.21875 1.5625q0.875 0.765625 2.046875 1.1875q1.171875 0.40625 2.390625 0.40625q1.03125 0 2.046875 -0.28125q1.015625 -0.296875 1.828125 -0.875q0.8125 -0.5625 1.3125 -1.40625q0.515625 -0.859375 0.515625 -2.015625q0 -1.125 -0.484375 -1.984375q-0.46875 -0.875 -1.234375 -1.484375q-0.796875 -0.640625 -1.75 -1.046875q-0.9375 -0.421875 -1.890625 -0.71875q-0.578125 -0.171875 -1.234375 -0.40625q-0.640625 -0.234375 -1.1875 -0.59375q-0.5625 -0.34375 -0.9375 -0.84375q-0.359375 -0.515625 -0.359375 -1.265625q0 -0.6718712 0.265625 -1.1874962q0.28125 -0.515625 0.75 -0.875q0.453125 -0.34375 1.046875 -0.515625q0.59375 -0.1875 1.21875 -0.1875q0.765625 0 1.375 0.25q0.625 0.234375 1.0625 0.671875q0.453125 0.4375 0.71875 1.046875q0.265625 0.59375 0.359375 1.3281212l2.234375 0q-0.03125 -1.1718712 -0.515625 -2.1093712q-0.46875 -0.953125 -1.265625 -1.625q-0.796875 -0.671875 -1.828125 -1.03125q-1.03125 -0.375 -2.140625 -0.375q-1.015625 0 -2.015625 0.3125q-0.984375 0.3125 -1.78125 0.90625q-0.78125 0.59375 -1.265625 1.46875q-0.484375 0.859375 -0.484375 1.9687462q0 1.09375 0.484375 1.90625q0.484375 0.8125 1.265625 1.421875q0.75 0.578125 1.6875 1.0q0.9375 0.40625 1.828125 0.703125q0.625 0.203125 1.296875 0.453125q0.671875 0.234375 1.234375 0.609375q0.5625 0.375 0.921875 0.921875q0.359375 0.53125 0.359375 1.3125zm5.2460938 4.3125l3.953125 0q1.234375 -0.015625 2.296875 -0.296875q1.0625 -0.28125 1.90625 -0.8125q0.796875 -0.5 1.4375 -1.203125q0.640625 -0.71875 1.0625 -1.609375q0.40625 -0.84375 0.625 -1.84375q0.21875 -1.015625 0.21875 -2.140625l0 -1.25q-0.015625 -1.171875 -0.25 -2.203125q-0.21875 -1.03125 -0.65625 -1.8906212q-0.46875 -1.03125 -1.28125 -1.796875q-0.796875 -0.78125 -1.84375 -1.265625q-0.75 -0.359375 -1.640625 -0.546875q-0.875 -0.1875 -1.875 -0.203125l-3.953125 0l0 17.062496zm2.203125 -15.281246l1.75 0q0.8125 0.015625 1.484375 0.1875q0.6875 0.15625 1.234375 0.46875q0.78125 0.40625 1.3125 1.078125q0.53125 0.65625 0.84375 1.4687462q0.25 0.640625 0.375 1.375q0.125 0.734375 0.125 1.53125l0 1.265625q0 0.796875 -0.125 1.515625q-0.109375 0.71875 -0.34375 1.34375q-0.28125 0.75 -0.75 1.375q-0.453125 0.609375 -1.078125 1.03125q-0.609375 0.40625 -1.375 0.640625q-0.765625 0.21875 -1.703125 0.234375l-1.75 0l0 -13.515621zm20.574219 10.859371l1.34375 4.421875l2.15625 0l-5.40625 -17.062496l-1.828125 0l-5.5 17.062496l2.171875 0l1.359375 -4.421875l5.703125 0zm-5.109375 -1.890625l2.28125 -7.406246l2.25 7.406246l-4.53125 0z" fill-rule="nonzero"/><path fill="#000000" fill-opacity="0.0" d="m503.4987 44.799213l74.992096 0l0 48.47244l-74.992096 0z" fill-rule="evenodd"/><path fill="#000000" d="m530.36 72.52671q0 0.703125 -0.3125 1.21875q-0.296875 0.5 -0.78125 0.828125q-0.46875 0.34375 -1.09375 0.5q-0.609375 0.15625 -1.25 0.15625q-0.796875 0 -1.46875 -0.21875q-0.671875 -0.21875 -1.1875 -0.640625q-0.515625 -0.421875 -0.84375 -1.03125q-0.328125 -0.625 -0.4375 -1.421875l-2.203125 0q0.03125 1.09375 0.484375 2.0q0.453125 0.890625 1.21875 1.5625q0.875 0.765625 2.046875 1.1875q1.171875 0.40625 2.390625 0.40625q1.03125 0 2.046875 -0.28125q1.015625 -0.296875 1.828125 -0.875q0.8125 -0.5625 1.3125 -1.40625q0.515625 -0.859375 0.515625 -2.015625q0 -1.125 -0.484375 -1.984375q-0.46875 -0.875 -1.234375 -1.484375q-0.796875 -0.640625 -1.75 -1.046875q-0.9375 -0.421875 -1.890625 -0.71875q-0.578125 -0.171875 -1.234375 -0.40625q-0.640625 -0.234375 -1.1875 -0.59375q-0.5625 -0.34375 -0.9375 -0.84375q-0.359375 -0.515625 -0.359375 -1.265625q0 -0.6718712 0.265625 -1.1874962q0.28125 -0.515625 0.75 -0.875q0.453125 -0.34375 1.046875 -0.515625q0.59375 -0.1875 1.21875 -0.1875q0.765625 0 1.375 0.25q0.625 0.234375 1.0625 0.671875q0.453125 0.4375 0.71875 1.046875q0.265625 0.59375 0.359375 1.3281212l2.234375 0q-0.03125 -1.1718712 -0.515625 -2.1093712q-0.46875 -0.953125 -1.265625 -1.625q-0.796875 -0.671875 -1.828125 -1.03125q-1.03125 -0.375 -2.140625 -0.375q-1.015625 0 -2.015625 0.3125q-0.984375 0.3125 -1.78125 0.90625q-0.78125 0.59375 -1.265625 1.46875q-0.484375 0.859375 -0.484375 1.9687462q0 1.09375 0.484375 1.90625q0.484375 0.8125 1.265625 1.421875q0.75 0.578125 1.6875 1.0q0.9375 0.40625 1.828125 0.703125q0.625 0.203125 1.296875 0.453125q0.671875 0.234375 1.234375 0.609375q0.5625 0.375 0.921875 0.921875q0.359375 0.53125 0.359375 1.3125zm16.527344 -0.828125l-2.171875 0q-0.109375 0.78125 -0.375 1.453125q-0.25 0.65625 -0.671875 1.125q-0.4375 0.5 -1.0625 0.765625q-0.625 0.265625 -1.484375 0.265625q-0.78125 0 -1.375 -0.25q-0.578125 -0.25 -1.015625 -0.6875q-0.4375 -0.4375 -0.71875 -1.015625q-0.28125 -0.578125 -0.453125 -1.234375q-0.171875 -0.640625 -0.25 -1.3125q-0.078125 -0.671875 -0.078125 -1.3125l0 -2.390625q0 -0.640625 0.078125 -1.3125q0.078125 -0.671875 0.25 -1.3125q0.171875 -0.6562462 0.453125 -1.2187462q0.296875 -0.578125 0.734375 -1.015625q0.421875 -0.4375 1.0 -0.6875q0.59375 -0.25 1.375 -0.25q0.859375 0 1.484375 0.296875q0.625 0.28125 1.0625 0.78125q0.421875 0.5 0.671875 1.171875q0.265625 0.6718712 0.375 1.4374962l2.171875 0q-0.140625 -1.2187462 -0.578125 -2.2187462q-0.4375 -1.015625 -1.171875 -1.734375q-0.71875 -0.71875 -1.734375 -1.109375q-1.0 -0.390625 -2.28125 -0.390625q-1.0625 0 -1.921875 0.296875q-0.859375 0.296875 -1.53125 0.828125q-0.671875 0.53125 -1.15625 1.25q-0.484375 0.71875 -0.8125 1.5625q-0.328125 0.8437462 -0.484375 1.7656212q-0.15625 0.921875 -0.171875 1.875l0 2.375q0.015625 0.953125 0.171875 1.890625q0.15625 0.921875 0.484375 1.765625q0.328125 0.84375 0.8125 1.5625q0.484375 0.703125 1.15625 1.234375q0.671875 0.53125 1.53125 0.828125q0.859375 0.296875 1.921875 0.296875q1.234375 0 2.234375 -0.390625q1.0 -0.390625 1.734375 -1.109375q0.734375 -0.703125 1.1875 -1.6875q0.453125 -1.0 0.609375 -2.1875zm5.7929688 3.296875l0 -15.218746l-2.15625 0l0 17.062496l10.5 0l0 -1.84375l-8.34375 0z" fill-rule="nonzero"/><path fill="#000000" fill-opacity="0.0" d="m293.00262 93.27165l80.031494 55.08661" fill-rule="evenodd"/><path stroke="#000000" stroke-width="3.0" stroke-linejoin="round" stroke-linecap="butt" d="m293.00262 93.27165l65.204346 44.88092" fill-rule="evenodd"/><path fill="#000000" stroke="#000000" stroke-width="3.0" stroke-linecap="butt" d="m355.39746 142.23431l14.024017 3.637329l-8.404968 -11.800812z" fill-rule="evenodd"/><path fill="#000000" fill-opacity="0.0" d="m376.48294 92.21129l28.251953 52.629913" fill-rule="evenodd"/><path stroke="#000000" stroke-width="3.0" stroke-linejoin="round" stroke-linecap="butt" d="m376.48294 92.21129l19.738556 36.770477" fill-rule="evenodd"/><path fill="#000000" stroke="#000000" stroke-width="3.0" stroke-linecap="butt" d="m391.85556 131.32542l10.805054 9.651627l-2.0731812 -14.338928z" fill-rule="evenodd"/><path fill="#000000" fill-opacity="0.0" d="m453.99475 93.27165l-24.75592 52.62993" fill-rule="evenodd"/><path stroke="#000000" stroke-width="3.0" stroke-linejoin="round" stroke-linecap="butt" d="m453.99475 93.27165l-17.09436 36.341858" fill-rule="evenodd"/><path fill="#000000" stroke="#000000" stroke-width="3.0" stroke-linecap="butt" d="m432.41644 127.50438l-1.310852 14.428604l10.278717 -10.210342z" fill-rule="evenodd"/><path fill="#000000" fill-opacity="0.0" d="m540.99475 93.27165l-80.031494 55.08661" fill-rule="evenodd"/><path stroke="#000000" stroke-width="3.0" stroke-linejoin="round" stroke-linecap="butt" d="m540.99475 93.27165l-65.204346 44.88092" fill-rule="evenodd"/><path fill="#000000" stroke="#000000" stroke-width="3.0" stroke-linecap="butt" d="m472.98087 134.07083l-8.404968 11.800812l14.024017 -3.637329z" fill-rule="evenodd"/></g></svg>